<svg width="902" height="432" viewBox="0 0 902 432" fill="none" xmlns="http://www.w3.org/2000/svg">
<g filter="url(#filter0_b_297_251)">
<rect width="902" height="432" rx="15" fill="url(#paint0_linear_297_251)"/>
<path d="M513 178L605.262 111.645C610.365 107.975 616.492 106 622.778 106H759" stroke="#5E39DA" stroke-width="0.4" stroke-linejoin="round" stroke-dasharray="2 2"/>
<circle cx="35" cy="35" r="35.25" transform="matrix(-1 0 0 1 829 70)" fill="#372D58" stroke="url(#paint1_linear_297_251)" stroke-width="0.5"/>
<g clip-path="url(#clip0_297_251)">
<path d="M794 80C807.808 80 819 91.1922 819 105C819 118.808 807.808 130 794 130C780.192 130 769 118.808 769 105C769 91.1922 780.192 80 794 80ZM794.38 90.9375H793.641C792.716 90.9375 792.017 91.4734 791.545 92.5656L787.909 101.778H785.158C784.333 101.781 783.664 102.478 783.658 103.341V103.362C783.664 104.227 784.333 104.923 785.158 104.927H786.636L783.166 113.709C783.1 113.903 783.065 114.105 783.062 114.309C783.062 114.802 783.206 115.188 783.473 115.487C783.739 115.787 784.109 115.938 784.583 115.938C784.895 115.932 785.197 115.827 785.445 115.638C785.711 115.445 785.897 115.166 786.039 114.845L789.861 104.927H792.511C793.334 104.923 794.003 104.225 794.011 103.362V103.32C794.003 102.456 793.334 101.758 792.511 101.756H791.094L794.009 94.1516L801.958 114.844C802.102 115.164 802.286 115.444 802.553 115.636C802.805 115.827 803.106 115.933 803.417 115.936C803.889 115.936 804.259 115.786 804.527 115.486C804.792 115.186 804.936 114.8 804.936 114.308C804.944 114.103 804.91 113.899 804.834 113.708L796.475 92.5641C796 91.4719 795.303 90.9375 794.38 90.9375Z" fill="url(#paint2_radial_297_251)"/>
</g>
<path d="M513.498 211.125H759" stroke="#5E39DA" stroke-width="0.4" stroke-linejoin="round" stroke-dasharray="2 2"/>
<circle cx="35" cy="35" r="35.25" transform="matrix(-1 0 0 1 829 176)" fill="#5123E5" fill-opacity="0.1" stroke="url(#paint3_linear_297_251)" stroke-width="0.5"/>
<g clip-path="url(#clip1_297_251)">
<path d="M794 186C807.808 186 819 197.192 819 211C819 224.808 807.808 236 794 236C780.192 236 769 224.808 769 211C769 197.192 780.192 186 794 186ZM790.628 194.594H790.455C789.361 194.611 786.123 195.003 784.836 198.92C784.438 197.913 784.07 196.445 784.07 196.445C784.07 196.445 784.058 196.455 784.039 196.475L783.953 196.561C783.5 197.034 781.92 198.956 782.85 201.884C780.727 201.097 778.596 200.327 776.459 199.577L776.325 199.533C776.315 199.53 776.305 199.527 776.295 199.525C776.097 199.495 776.041 199.581 776.041 199.581C776.041 199.581 775.983 199.669 776.153 199.812C776.466 200.07 782.423 204.531 783.728 205.394C783.445 206.43 783.445 206.919 783.728 207.409C784.127 208.07 784.155 208.416 784.098 208.905C784.041 209.394 783.53 213.623 783.417 214.142C783.303 214.659 782.113 216.502 782.167 217.048C782.225 217.595 782.964 219.925 783.616 220.184C784.098 220.356 785.289 220.731 786.084 220.731C786.367 220.731 786.623 220.673 786.736 220.559C787.219 220.127 787.361 220.041 787.702 220.041H787.786C787.927 220.041 788.098 220.069 788.297 220.069C788.75 220.069 789.347 219.983 789.772 219.58C790.397 218.947 791.475 218.083 791.814 217.681C792.241 217.134 792.467 216.384 792.353 215.638C792.269 214.947 792.637 214.342 793.062 213.739C793.602 213.02 794.594 211.723 794.594 211.723C796.553 213.22 797.772 215.494 797.772 218.027C797.772 222.514 793.914 226.141 789.147 226.141C788.42 226.141 787.696 226.054 786.991 225.881C789.177 226.658 791.02 226.917 792.523 226.917C795.73 226.917 797.433 225.737 797.433 225.737C797.433 225.737 796.836 226.514 795.87 227.406H795.902C801.206 226.658 803.787 222.227 803.787 222.227C803.787 222.227 803.589 223.666 803.334 224.644C810.397 219.263 809.206 212.53 809.178 212.3C809.234 212.386 809.944 213.25 810.312 213.709C811.281 203.605 804.475 199.333 802.445 198.292L802.233 198.186C802.119 198.13 802.003 198.077 801.886 198.028C801.886 198.028 803.305 198.086 804.78 198.258C801.461 195.611 798.311 194.834 795.758 194.834C792.241 194.834 789.858 196.302 789.716 196.387L790.822 194.605C790.822 194.605 790.753 194.595 790.628 194.594ZM794.141 200.791C799.958 201.423 804.497 206.431 804.497 212.502C804.501 214.713 803.884 216.881 802.715 218.758C801.546 220.636 799.874 222.147 797.888 223.119C799.731 221.681 801.148 219.666 801.773 217.392C801.802 217.306 802.056 217.163 802.227 217.048C802.511 216.903 802.794 216.731 802.852 216.502C802.964 215.839 803.022 215.148 803.022 214.458C803.022 214.198 802.766 213.941 802.511 213.681C802.369 213.509 802.142 213.306 802.142 213.163C801.912 211.075 801.106 209.093 799.814 207.438C799.248 203.984 796.978 202.92 796.922 202.891L796.958 202.947L797.034 203.072C797.373 203.65 798.297 205.525 797.433 207.667C796.383 210.23 793.688 209.825 793.461 209.855C793.233 209.855 792.353 211.005 791.247 213.134C790.787 212.995 790.301 212.966 789.828 213.048C790.339 211.609 791.105 209.567 791.247 209.394C791.305 209.336 791.73 209.222 792.012 209.134C792.552 208.991 792.808 208.905 792.892 208.791C792.95 208.703 793.233 208.041 793.517 207.352C793.772 207.352 794.423 207.294 794.481 207.264C794.539 207.206 795.078 205.797 795.078 205.623C795.078 205.481 793.97 202.689 793.545 201.623C793.765 201.361 793.964 201.083 794.141 200.791ZM799.9 208.041C801.009 209.561 801.694 211.348 801.886 213.22C801.914 213.452 802.142 213.681 802.369 213.911C802.567 214.083 802.794 214.314 802.794 214.458C802.794 215.12 802.737 215.781 802.623 216.442C802.595 216.53 802.341 216.673 802.142 216.789C801.858 216.933 801.603 217.077 801.545 217.306L801.412 217.747C800.792 219.626 799.663 221.297 798.152 222.575L797.803 222.856L798.044 222.594C800.516 219.781 801.653 215.352 799.673 211.811C799.958 210.342 799.986 209.077 799.9 208.041ZM792.098 197.109C792.098 197.109 793.148 199.439 792.042 201.137C790.906 202.834 789.8 203.152 789.8 203.152C789.8 203.152 791.361 203.439 792.808 202.375C793.403 203.784 793.97 205.252 794 205.453L793.458 206.756L793.228 207.308C792.961 207.942 792.716 208.514 792.666 208.589C792.609 208.647 792.212 208.761 791.928 208.82C791.445 208.964 791.163 209.05 791.048 209.136C790.85 209.308 789.942 211.841 789.517 213.078C788.943 213.226 788.446 213.586 788.127 214.086C788.325 213.942 788.948 213.855 789.403 213.798C789.8 213.769 791.02 214.431 791.333 215.669V215.725C791.389 216.186 791.247 216.617 791.02 216.962C790.906 217.106 790.425 217.539 790.083 217.855C789.744 218.172 789.375 218.487 789.091 218.777C788.978 218.891 788.75 218.948 788.409 218.948H787.559C787.984 218.373 789.233 217.048 789.658 216.761C790.169 216.417 790.423 216.07 790.111 215.467C789.8 214.862 788.978 215.006 788.978 215.006C788.978 215.006 789.459 214.805 789.884 214.805C789.347 214.661 788.666 214.805 788.353 215.122C788.012 215.438 788.07 216.559 787.928 217.278C787.786 218.028 787.303 218.402 786.566 219.092C786.169 219.467 785.884 219.581 785.659 219.581C785.168 219.494 784.683 219.368 784.211 219.206C783.928 218.833 783.502 217.597 783.389 217.078C783.473 216.791 783.814 216.186 783.983 215.841C784.325 215.178 784.523 214.805 784.58 214.459C784.694 213.97 785.062 210.948 785.205 209.683C785.573 210.172 786.084 210.978 785.97 211.495C786.794 210.316 786.197 209.166 785.914 208.705C785.658 208.244 785.317 207.323 785.602 206.345C785.884 205.367 786.906 202.662 786.906 202.662C786.906 202.662 787.247 203.267 787.73 203.152C788.211 203.036 792.098 197.109 792.098 197.109ZM785.302 215.209C785.302 215.209 784.372 216.859 784.288 217.087C784.203 217.344 784.344 217.798 784.709 217.77C785.077 217.742 785.527 217.202 785.527 216.802C785.527 216.291 785.077 216.348 785.077 216.348L785.302 215.209ZM788.92 215.467C789.148 215.409 789.686 215.495 789.686 215.898C789.686 216.273 789.289 216.359 789.006 216.617C788.808 216.82 788.409 217.25 788.353 217.308L788.355 217.306L788.436 217.158C788.578 216.836 788.586 216.419 788.6 216.194L788.609 216.1C788.638 215.897 788.694 215.523 788.922 215.467H788.92ZM790.253 203.805C790.253 203.805 787.37 208.394 787.116 208.481C786.861 208.567 786.608 207.562 786.608 207.562C786.07 209.656 787.513 209.944 787.681 209.284C788.473 209.083 789.83 208.222 790.367 207.62C790.903 206.989 790.62 205.812 789.633 205.612C789.886 205.009 790.253 203.805 790.253 203.805ZM791.847 198.864L789.975 201.731H790C790.134 201.722 790.753 201.633 791.456 200.805C792.1 200.023 791.847 198.864 791.847 198.864Z" fill="url(#paint4_radial_297_251)"/>
</g>
<path d="M513 237L605.262 303.355C610.365 307.025 616.492 309 622.778 309H759" stroke="#1C4DF0" stroke-width="0.4" stroke-linejoin="round" stroke-dasharray="2 2"/>
<circle cx="35" cy="35" r="35.25" transform="matrix(-1 0 0 1 829 274)" fill="#372D58" stroke="url(#paint5_linear_297_251)" stroke-width="0.5"/>
<g clip-path="url(#clip2_297_251)">
<path d="M794 334C807.807 334 819 322.807 819 309C819 295.193 807.807 284 794 284C780.193 284 769 295.193 769 309C769 322.807 780.193 334 794 334Z" fill="url(#paint6_radial_297_251)"/>
<path fill-rule="evenodd" clip-rule="evenodd" d="M789.308 295.328C792.044 295.328 798.808 296.633 805.23 301.275C811.652 305.917 808.767 312.442 807.331 313.716C805.894 314.989 794.662 316.67 793.962 317.833C793.262 318.994 792.447 323.453 788.947 323.453C785.447 323.453 783.819 319.906 782.994 317.848C782.166 315.791 781.109 312.305 781.109 307.417C781.109 302.53 783.219 295.328 789.308 295.328ZM786.917 308.272C784.803 308.43 783.808 311.53 784.031 314.908C784.255 318.286 786.802 321.164 788.338 321.164C789.873 321.164 792.15 319.123 791.697 314.711C791.242 310.297 789.031 308.113 786.917 308.272ZM798.78 302.772C795.819 301.62 791.445 300.573 792.827 303.6C793.292 304.617 793.667 306.386 793.953 308.905C799.459 308.498 802.766 307.842 803.867 306.936C805.519 305.58 801.739 303.925 798.78 302.772Z" fill="#1D1A48"/>
</g>
<path d="M371 177L278.738 110.645C273.635 106.975 267.508 105 261.222 105H125" stroke="#5E39DA" stroke-width="0.4" stroke-linejoin="round" stroke-dasharray="2 2"/>
<circle cx="35" cy="35" r="35.25" transform="matrix(-1 0 0 1 125 71)" fill="#372D58" stroke="url(#paint7_linear_297_251)" stroke-width="0.5"/>
<g clip-path="url(#clip3_297_251)">
<path d="M90 130C103.807 130 115 118.807 115 105C115 91.1929 103.807 80 90 80C76.1929 80 65 91.1929 65 105C65 118.807 76.1929 130 90 130Z" fill="url(#paint8_radial_297_251)"/>
<path d="M82.3313 99.1625C82.2404 99.0449 82.1237 98.9498 81.99 98.8848C81.8564 98.8197 81.7096 98.7864 81.5609 98.7875H75.3422C75.2922 98.7865 75.2443 98.767 75.2078 98.7328C75.1754 98.7011 75.1569 98.6579 75.1562 98.6125V94.2375C75.1569 94.1922 75.1754 94.1489 75.2078 94.1172C75.224 94.0979 75.2448 94.0829 75.2683 94.0736C75.2917 94.0643 75.3171 94.0611 75.3422 94.0641H81.9141C83.5703 94.0641 85 94.7735 86.2062 96.1875L87.8047 98.2235L84.6922 102.183L82.3313 99.1625ZM93.8172 96.1672C95.0172 94.7672 96.4547 94.0641 98.1297 94.0641H104.681C104.703 94.062 104.725 94.0646 104.746 94.0716C104.767 94.0786 104.787 94.0899 104.803 94.1047C104.819 94.1224 104.831 94.1435 104.838 94.1666C104.845 94.1896 104.846 94.2139 104.842 94.2375V98.6125C104.842 98.6594 104.83 98.7 104.803 98.7328C104.789 98.7517 104.771 98.7666 104.749 98.776C104.728 98.7853 104.704 98.7888 104.681 98.786H98.4625C98.3141 98.7851 98.1676 98.8185 98.0343 98.8835C97.9009 98.9486 97.7844 99.0435 97.6938 99.161L93.1094 104.984L97.7109 110.847C97.8984 111.067 98.1734 111.202 98.4563 111.195H104.675C104.698 111.194 104.721 111.198 104.742 111.207C104.763 111.216 104.781 111.23 104.795 111.248C104.824 111.289 104.838 111.339 104.834 111.389V115.764C104.836 115.808 104.822 115.85 104.795 115.884C104.782 115.903 104.763 115.918 104.742 115.928C104.72 115.937 104.697 115.94 104.673 115.938H98.1281C96.4531 115.938 95.0281 115.228 93.8344 113.814L90.0219 108.958L86.2109 113.814C85.0109 115.228 83.5734 115.939 81.8984 115.939H75.3437C75.3205 115.941 75.2972 115.937 75.2759 115.927C75.2546 115.918 75.2361 115.903 75.2219 115.884C75.2064 115.865 75.1949 115.842 75.1882 115.818C75.1815 115.794 75.1797 115.769 75.1828 115.744V111.369C75.1828 111.322 75.1969 111.281 75.2219 111.248C75.2356 111.23 75.2542 111.215 75.2756 111.205C75.297 111.196 75.3205 111.193 75.3437 111.195H81.5625C81.8578 111.195 82.1406 111.055 82.3328 110.82L86.8313 105.086L93.8188 96.1688L93.8172 96.1672Z" fill="#1D1A48"/>
</g>
<path d="M370.502 210.125H125" stroke="#5E39DA" stroke-width="0.4" stroke-linejoin="round" stroke-dasharray="2 2"/>
<circle cx="35" cy="35" r="35.25" transform="matrix(-1 0 0 1 125 175)" fill="#5123E5" fill-opacity="0.1" stroke="url(#paint9_linear_297_251)" stroke-width="0.5"/>
<g clip-path="url(#clip4_297_251)">
<path d="M90 235C103.807 235 115 223.807 115 210C115 196.193 103.807 185 90 185C76.1929 185 65 196.193 65 210C65 223.807 76.1929 235 90 235Z" fill="url(#paint10_radial_297_251)"/>
<path fill-rule="evenodd" clip-rule="evenodd" d="M78.3906 218.729C78.0022 218.5 77.68 218.173 77.4555 217.782C77.2309 217.391 77.1117 216.948 77.1094 216.497V211.414C77.1094 210.809 77.6125 210.32 78.2281 210.323C78.425 210.323 78.6188 210.375 78.7906 210.472L90.5141 217.161C91.2 217.551 91.6234 218.27 91.6234 219.047V224.312C91.6224 224.486 91.587 224.658 91.5192 224.819C91.4514 224.979 91.3526 225.124 91.2285 225.246C91.1043 225.368 90.9572 225.465 90.7958 225.53C90.6343 225.594 90.4615 225.627 90.2875 225.625C90.0401 225.625 89.7973 225.559 89.5844 225.433L78.3906 218.729ZM95.8656 209.079C96.5531 209.47 96.9719 210.19 96.975 210.965V221.653C96.975 221.969 96.8031 222.261 96.5203 222.414L93.9547 223.826C93.9217 223.845 93.8865 223.859 93.85 223.869V217.934C93.85 217.165 93.4391 216.453 92.7625 216.059L82.4688 210.031V203.333C82.4688 202.728 82.9719 202.239 83.5891 202.242C83.7857 202.242 83.9789 202.293 84.15 202.39L95.8688 209.079H95.8656ZM100.998 201.186C101.686 201.576 102.109 202.295 102.109 203.075V218.684C102.107 218.843 102.063 218.998 101.98 219.133C101.897 219.269 101.779 219.379 101.639 219.453L99.2063 220.739V209.87C99.2063 209.103 98.7937 208.392 98.1234 207.997L87.5984 201.82V195.469C87.5984 195.275 87.6531 195.086 87.7484 194.919C87.9017 194.667 88.1467 194.485 88.4316 194.412C88.7166 194.338 89.0191 194.378 89.275 194.523L100.998 201.186Z" fill="#1D1A48"/>
</g>
<path d="M371 236L278.738 302.355C273.635 306.025 267.508 308 261.222 308H125" stroke="#5E39DA" stroke-width="0.4" stroke-linejoin="round" stroke-dasharray="2 2"/>
<circle cx="35" cy="35" r="35.25" transform="matrix(-1 0 0 1 125 273)" fill="#372D58" stroke="url(#paint11_linear_297_251)" stroke-width="0.5"/>
<g clip-path="url(#clip5_297_251)">
<path d="M90 333C103.807 333 115 321.807 115 308C115 294.193 103.807 283 90 283C76.1929 283 65 294.193 65 308C65 321.807 76.1929 333 90 333Z" fill="url(#paint12_radial_297_251)"/>
<path d="M88.3234 308.253L100.386 315.164C100.483 315.222 100.594 315.254 100.707 315.255C100.82 315.256 100.932 315.227 101.03 315.171C101.129 315.115 101.21 315.034 101.267 314.935C101.323 314.837 101.352 314.726 101.352 314.612V301.884C101.353 301.771 101.324 301.659 101.268 301.561C101.211 301.462 101.129 301.381 101.031 301.325C100.932 301.269 100.82 301.241 100.707 301.243C100.593 301.245 100.482 301.278 100.386 301.337L88.3234 308.253ZM100.131 298.28L91.8843 292.214C91.799 292.148 91.6988 292.105 91.5926 292.087C91.4864 292.069 91.3775 292.078 91.2755 292.112C91.1734 292.147 91.0814 292.205 91.0075 292.284C90.9335 292.362 90.88 292.457 90.8515 292.561L87.8406 306.072L100.059 299.317C100.152 299.269 100.231 299.198 100.288 299.111C100.345 299.023 100.379 298.923 100.386 298.819C100.393 298.714 100.374 298.61 100.329 298.516C100.284 298.421 100.216 298.34 100.131 298.28ZM91.875 324.287L100.131 318.222C100.218 318.161 100.287 318.079 100.333 317.983C100.379 317.888 100.399 317.782 100.392 317.677C100.385 317.571 100.351 317.469 100.293 317.38C100.236 317.292 100.156 317.219 100.062 317.17L87.8406 310.416L90.8515 323.927C90.8764 324.032 90.9271 324.129 90.9989 324.209C91.0707 324.29 91.1615 324.352 91.2629 324.388C91.3644 324.425 91.4735 324.436 91.5803 324.421C91.6871 324.405 91.7884 324.363 91.875 324.298" fill="#1D1A48"/>
<path d="M85.1874 308.003L88.3234 293.333C88.3475 293.211 88.3348 293.085 88.2867 292.971C88.2386 292.856 88.1575 292.759 88.0537 292.691C87.9499 292.623 87.8281 292.588 87.7041 292.59C87.5801 292.592 87.4595 292.631 87.3578 292.702L79.3234 298.863C79.1197 299.019 78.9549 299.22 78.8419 299.45C78.7289 299.681 78.6707 299.934 78.6718 300.191V315.825C78.664 316.352 78.9062 316.85 79.3234 317.17L87.3187 323.314C87.4205 323.385 87.5414 323.424 87.6656 323.426C87.7898 323.428 87.9117 323.392 88.0156 323.324C88.1195 323.256 88.2006 323.159 88.2485 323.044C88.2964 322.929 88.3089 322.803 88.2843 322.681L85.1859 308.003H85.1874Z" fill="#1D1A48"/>
</g>
<g filter="url(#filter1_b_297_251)">
<path d="M276 119H626V288.262H276V119Z" fill="#5123E5" fill-opacity="0.1"/>
<path d="M276.15 119.15H625.85V288.112H276.15V119.15Z" stroke="#503D94" stroke-width="0.3"/>
</g>
<g filter="url(#filter2_b_297_251)">
<path d="M302.064 131.411H602.418V276.665H302.064V131.411Z" fill="#5123E5" fill-opacity="0.1"/>
<path d="M302.214 131.561H602.268V276.515H302.214V131.561Z" stroke="#503D94" stroke-width="0.3"/>
</g>
<path d="M327.036 143.972H577.446V264.917H327.036V143.972Z" fill="#5123E5" fill-opacity="0.2" stroke="#503D94" stroke-width="0.3"/>
<path d="M351.859 156.384H552.623V253.32H351.859V156.384Z" fill="url(#paint13_radial_297_251)" fill-opacity="0.5" stroke="#503D94" stroke-width="0.3"/>
<path opacity="0.9" d="M376.532 168.496H376.382V168.646V241.872V242.022H376.532H527.95H528.1V241.872V168.646V168.496H527.95H376.532Z" fill="url(#paint14_linear_297_251)" stroke="#503D94" stroke-width="0.3"/>
<rect x="422.454" y="187.263" width="6.82249" height="36.2444" rx="3.41124" fill="#231260"/>
<rect x="475.206" y="187.263" width="6.82249" height="36.2444" rx="3.41124" fill="#231260"/>
<rect x="435.642" y="193.303" width="6.82249" height="24.163" rx="3.41124" fill="#231260"/>
<rect x="448.83" y="199.343" width="6.82249" height="12.0815" rx="3.41124" fill="#231260"/>
<rect x="462.018" y="199.343" width="6.82249" height="12.0815" rx="3.41124" fill="#231260"/>
<rect x="0.2" y="0.2" width="901.6" height="431.6" rx="14.8" stroke="url(#paint15_linear_297_251)" stroke-width="0.4"/>
</g>
<defs>
<filter id="filter0_b_297_251" x="-10" y="-10" width="922" height="452" filterUnits="userSpaceOnUse" color-interpolation-filters="sRGB">
<feFlood flood-opacity="0" result="BackgroundImageFix"/>
<feGaussianBlur in="BackgroundImageFix" stdDeviation="5"/>
<feComposite in2="SourceAlpha" operator="in" result="effect1_backgroundBlur_297_251"/>
<feBlend mode="normal" in="SourceGraphic" in2="effect1_backgroundBlur_297_251" result="shape"/>
</filter>
<filter id="filter1_b_297_251" x="270" y="113" width="362" height="181.262" filterUnits="userSpaceOnUse" color-interpolation-filters="sRGB">
<feFlood flood-opacity="0" result="BackgroundImageFix"/>
<feGaussianBlur in="BackgroundImageFix" stdDeviation="3"/>
<feComposite in2="SourceAlpha" operator="in" result="effect1_backgroundBlur_297_251"/>
<feBlend mode="normal" in="SourceGraphic" in2="effect1_backgroundBlur_297_251" result="shape"/>
</filter>
<filter id="filter2_b_297_251" x="292.064" y="121.411" width="320.355" height="165.253" filterUnits="userSpaceOnUse" color-interpolation-filters="sRGB">
<feFlood flood-opacity="0" result="BackgroundImageFix"/>
<feGaussianBlur in="BackgroundImageFix" stdDeviation="5"/>
<feComposite in2="SourceAlpha" operator="in" result="effect1_backgroundBlur_297_251"/>
<feBlend mode="normal" in="SourceGraphic" in2="effect1_backgroundBlur_297_251" result="shape"/>
</filter>
<linearGradient id="paint0_linear_297_251" x1="451" y1="0" x2="451" y2="432" gradientUnits="userSpaceOnUse">
<stop stop-color="#A4A7FF" stop-opacity="0.15"/>
<stop offset="1" stop-color="#CDCFFF" stop-opacity="0"/>
</linearGradient>
<linearGradient id="paint1_linear_297_251" x1="35" y1="0" x2="35" y2="70" gradientUnits="userSpaceOnUse">
<stop stop-color="#484068"/>
<stop offset="1" stop-color="#503D94" stop-opacity="0.25"/>
</linearGradient>
<radialGradient id="paint2_radial_297_251" cx="0" cy="0" r="1" gradientUnits="userSpaceOnUse" gradientTransform="translate(794 105) rotate(90) scale(25)">
<stop stop-color="#927DD9"/>
<stop offset="1" stop-color="#A2AFF5"/>
</radialGradient>
<linearGradient id="paint3_linear_297_251" x1="35" y1="0" x2="35" y2="70" gradientUnits="userSpaceOnUse">
<stop stop-color="#484068"/>
<stop offset="1" stop-color="#503D94" stop-opacity="0.25"/>
</linearGradient>
<radialGradient id="paint4_radial_297_251" cx="0" cy="0" r="1" gradientUnits="userSpaceOnUse" gradientTransform="translate(794 211) rotate(90) scale(25)">
<stop stop-color="#927DD9"/>
<stop offset="1" stop-color="#A2AFF5"/>
</radialGradient>
<linearGradient id="paint5_linear_297_251" x1="35" y1="0" x2="35" y2="70" gradientUnits="userSpaceOnUse">
<stop stop-color="#484068"/>
<stop offset="1" stop-color="#503D94" stop-opacity="0.25"/>
</linearGradient>
<radialGradient id="paint6_radial_297_251" cx="0" cy="0" r="1" gradientUnits="userSpaceOnUse" gradientTransform="translate(794 309) rotate(90) scale(25)">
<stop stop-color="#927DD9"/>
<stop offset="1" stop-color="#A2AFF5"/>
</radialGradient>
<linearGradient id="paint7_linear_297_251" x1="35" y1="0" x2="35" y2="70" gradientUnits="userSpaceOnUse">
<stop stop-color="#484068"/>
<stop offset="1" stop-color="#503D94" stop-opacity="0.25"/>
</linearGradient>
<radialGradient id="paint8_radial_297_251" cx="0" cy="0" r="1" gradientUnits="userSpaceOnUse" gradientTransform="translate(90 105) rotate(90) scale(25)">
<stop stop-color="#927DD9"/>
<stop offset="1" stop-color="#A2AFF5"/>
</radialGradient>
<linearGradient id="paint9_linear_297_251" x1="35" y1="0" x2="35" y2="70" gradientUnits="userSpaceOnUse">
<stop stop-color="#484068"/>
<stop offset="1" stop-color="#503D94" stop-opacity="0.25"/>
</linearGradient>
<radialGradient id="paint10_radial_297_251" cx="0" cy="0" r="1" gradientUnits="userSpaceOnUse" gradientTransform="translate(90 210) rotate(90) scale(25)">
<stop stop-color="#927DD9"/>
<stop offset="1" stop-color="#A2AFF5"/>
</radialGradient>
<linearGradient id="paint11_linear_297_251" x1="35" y1="0" x2="35" y2="70" gradientUnits="userSpaceOnUse">
<stop stop-color="#484068"/>
<stop offset="1" stop-color="#503D94" stop-opacity="0.25"/>
</linearGradient>
<radialGradient id="paint12_radial_297_251" cx="0" cy="0" r="1" gradientUnits="userSpaceOnUse" gradientTransform="translate(90 308) rotate(90) scale(25)">
<stop stop-color="#927DD9"/>
<stop offset="1" stop-color="#A2AFF5"/>
</radialGradient>
<radialGradient id="paint13_radial_297_251" cx="0" cy="0" r="1" gradientUnits="userSpaceOnUse" gradientTransform="translate(452.241 204.639) rotate(90) scale(48.4043 81.672)">
<stop stop-color="#5123E5" stop-opacity="0"/>
<stop offset="1" stop-color="#5123E5" stop-opacity="0.85"/>
</radialGradient>
<linearGradient id="paint14_linear_297_251" x1="452.241" y1="168.646" x2="452.241" y2="241.872" gradientUnits="userSpaceOnUse">
<stop stop-color="#5123E5"/>
<stop offset="1" stop-color="#7B5BE4"/>
</linearGradient>
<linearGradient id="paint15_linear_297_251" x1="451" y1="0" x2="451" y2="432" gradientUnits="userSpaceOnUse">
<stop stop-color="#626364"/>
<stop offset="1" stop-color="#626364" stop-opacity="0"/>
</linearGradient>
<clipPath id="clip0_297_251">
<rect width="50" height="50" fill="white" transform="translate(769 80)"/>
</clipPath>
<clipPath id="clip1_297_251">
<rect width="50" height="50" fill="white" transform="translate(769 186)"/>
</clipPath>
<clipPath id="clip2_297_251">
<rect width="50" height="50" fill="white" transform="translate(769 284)"/>
</clipPath>
<clipPath id="clip3_297_251">
<rect width="50" height="50" fill="white" transform="translate(65 80)"/>
</clipPath>
<clipPath id="clip4_297_251">
<rect width="50" height="50" fill="white" transform="translate(65 185)"/>
</clipPath>
<clipPath id="clip5_297_251">
<rect width="50" height="50" fill="white" transform="translate(65 283)"/>
</clipPath>
</defs>
</svg>
