<svg width="256" height="168" viewBox="0 0 256 168" fill="none" xmlns="http://www.w3.org/2000/svg">
<circle cx="15" cy="15" r="15" fill="black"/>
<path d="M9 16.24L13.8 20.08L21 10" stroke="#013CFF" stroke-width="2.5" stroke-linecap="round" stroke-linejoin="round"/>
<path d="M39.5185 20.5V8.86364H46.4957V10.1136H40.9276V14.0455H45.973V15.2955H40.9276V20.5H39.5185ZM48.7273 20.5V11.7727H50.0682V20.5H48.7273ZM49.4091 10.3182C49.1477 10.3182 48.9223 10.2292 48.733 10.0511C48.5473 9.87311 48.4545 9.65909 48.4545 9.40909C48.4545 9.15909 48.5473 8.94508 48.733 8.76705C48.9223 8.58902 49.1477 8.5 49.4091 8.5C49.6705 8.5 49.8939 8.58902 50.0795 8.76705C50.2689 8.94508 50.3636 9.15909 50.3636 9.40909C50.3636 9.65909 50.2689 9.87311 50.0795 10.0511C49.8939 10.2292 49.6705 10.3182 49.4091 10.3182ZM53.8651 15.25V20.5H52.5241V11.7727H53.8196V13.1364H53.9332C54.1378 12.6932 54.4484 12.3371 54.8651 12.0682C55.2817 11.7955 55.8196 11.6591 56.4787 11.6591C57.0696 11.6591 57.5866 11.7803 58.0298 12.0227C58.473 12.2614 58.8177 12.625 59.0639 13.1136C59.3101 13.5985 59.4332 14.2121 59.4332 14.9545V20.5H58.0923V15.0455C58.0923 14.3598 57.9143 13.8258 57.5582 13.4432C57.2022 13.0568 56.7135 12.8636 56.0923 12.8636C55.6643 12.8636 55.2817 12.9564 54.9446 13.142C54.6113 13.3277 54.348 13.5985 54.1548 13.9545C53.9616 14.3106 53.8651 14.7424 53.8651 15.25ZM65.179 20.6818C64.4517 20.6818 63.8097 20.4981 63.2528 20.1307C62.696 19.7595 62.2604 19.2367 61.946 18.5625C61.6316 17.8845 61.4744 17.0833 61.4744 16.1591C61.4744 15.2424 61.6316 14.447 61.946 13.7727C62.2604 13.0985 62.6979 12.5777 63.2585 12.2102C63.8191 11.8428 64.4669 11.6591 65.2017 11.6591C65.7699 11.6591 66.2188 11.7538 66.5483 11.9432C66.8816 12.1288 67.1354 12.3409 67.3097 12.5795C67.4877 12.8144 67.6259 13.0076 67.7244 13.1591H67.8381V8.86364H69.179V20.5H67.8835V19.1591H67.7244C67.6259 19.3182 67.4858 19.5189 67.304 19.7614C67.1222 20 66.8627 20.214 66.5256 20.4034C66.1884 20.589 65.7396 20.6818 65.179 20.6818ZM65.3608 19.4773C65.8987 19.4773 66.3532 19.3371 66.7244 19.0568C67.0956 18.7727 67.3778 18.3807 67.571 17.8807C67.7642 17.3769 67.8608 16.7955 67.8608 16.1364C67.8608 15.4848 67.7661 14.9148 67.5767 14.4261C67.3873 13.9337 67.107 13.5511 66.7358 13.2784C66.3646 13.0019 65.9063 12.8636 65.3608 12.8636C64.7926 12.8636 64.3191 13.0095 63.9403 13.3011C63.5653 13.589 63.2831 13.9811 63.0938 14.4773C62.9081 14.9697 62.8153 15.5227 62.8153 16.1364C62.8153 16.7576 62.91 17.322 63.0994 17.8295C63.2926 18.3333 63.5767 18.7348 63.9517 19.0341C64.3305 19.3295 64.8002 19.4773 65.3608 19.4773ZM76.5028 20.5V8.86364H77.8438V13.1591H77.9574C78.0559 13.0076 78.1922 12.8144 78.3665 12.5795C78.5445 12.3409 78.7983 12.1288 79.1278 11.9432C79.4612 11.7538 79.9119 11.6591 80.4801 11.6591C81.215 11.6591 81.8627 11.8428 82.4233 12.2102C82.9839 12.5777 83.4214 13.0985 83.7358 13.7727C84.0502 14.447 84.2074 15.2424 84.2074 16.1591C84.2074 17.0833 84.0502 17.8845 83.7358 18.5625C83.4214 19.2367 82.9858 19.7595 82.429 20.1307C81.8722 20.4981 81.2301 20.6818 80.5028 20.6818C79.9422 20.6818 79.4934 20.589 79.1562 20.4034C78.8191 20.214 78.5597 20 78.3778 19.7614C78.196 19.5189 78.0559 19.3182 77.9574 19.1591H77.7983V20.5H76.5028ZM77.821 16.1364C77.821 16.7955 77.9176 17.3769 78.1108 17.8807C78.304 18.3807 78.5862 18.7727 78.9574 19.0568C79.3286 19.3371 79.7831 19.4773 80.321 19.4773C80.8816 19.4773 81.3494 19.3295 81.7244 19.0341C82.1032 18.7348 82.3873 18.3333 82.5767 17.8295C82.7699 17.322 82.8665 16.7576 82.8665 16.1364C82.8665 15.5227 82.7718 14.9697 82.5824 14.4773C82.3968 13.9811 82.1146 13.589 81.7358 13.3011C81.3608 13.0095 80.8892 12.8636 80.321 12.8636C79.7756 12.8636 79.3172 13.0019 78.946 13.2784C78.5748 13.5511 78.2945 13.9337 78.1051 14.4261C77.9157 14.9148 77.821 15.4848 77.821 16.1364ZM89.9176 20.6818C89.0767 20.6818 88.3513 20.4962 87.7415 20.125C87.1354 19.75 86.6676 19.2273 86.3381 18.5568C86.0123 17.8826 85.8494 17.0985 85.8494 16.2045C85.8494 15.3106 86.0123 14.5227 86.3381 13.8409C86.6676 13.1553 87.1259 12.6212 87.7131 12.2386C88.304 11.8523 88.9934 11.6591 89.7812 11.6591C90.2358 11.6591 90.6847 11.7348 91.1278 11.8864C91.571 12.0379 91.9744 12.2841 92.3381 12.625C92.7017 12.9621 92.9915 13.4091 93.2074 13.9659C93.4233 14.5227 93.5312 15.2083 93.5312 16.0227V16.5909H86.804V15.4318H92.1676C92.1676 14.9394 92.0691 14.5 91.8722 14.1136C91.679 13.7273 91.4025 13.4223 91.0426 13.1989C90.6866 12.9754 90.2661 12.8636 89.7812 12.8636C89.2472 12.8636 88.785 12.9962 88.3949 13.2614C88.0085 13.5227 87.7112 13.8636 87.5028 14.2841C87.2945 14.7045 87.1903 15.1553 87.1903 15.6364V16.4091C87.1903 17.0682 87.304 17.6269 87.5312 18.0852C87.7623 18.5398 88.0824 18.8864 88.4915 19.125C88.9006 19.3598 89.3759 19.4773 89.9176 19.4773C90.2699 19.4773 90.5881 19.428 90.8722 19.3295C91.16 19.2273 91.4081 19.0758 91.6165 18.875C91.8248 18.6705 91.9858 18.4167 92.0994 18.1136L93.3949 18.4773C93.2585 18.9167 93.0294 19.303 92.7074 19.6364C92.3854 19.9659 91.9877 20.2235 91.5142 20.4091C91.0407 20.5909 90.5085 20.6818 89.9176 20.6818ZM101.753 13.7273L100.548 14.0682C100.473 13.8674 100.361 13.6723 100.213 13.483C100.069 13.2898 99.8722 13.1307 99.6222 13.0057C99.3722 12.8807 99.0521 12.8182 98.6619 12.8182C98.1278 12.8182 97.6828 12.9413 97.3267 13.1875C96.9744 13.4299 96.7983 13.7386 96.7983 14.1136C96.7983 14.447 96.9195 14.7102 97.1619 14.9034C97.4044 15.0966 97.7831 15.2576 98.2983 15.3864L99.5938 15.7045C100.374 15.8939 100.955 16.1837 101.338 16.5739C101.721 16.9602 101.912 17.4583 101.912 18.0682C101.912 18.5682 101.768 19.0152 101.48 19.4091C101.196 19.803 100.798 20.1136 100.287 20.3409C99.7756 20.5682 99.1809 20.6818 98.5028 20.6818C97.6127 20.6818 96.8759 20.4886 96.2926 20.1023C95.7093 19.7159 95.34 19.1515 95.1847 18.4091L96.4574 18.0909C96.5786 18.5606 96.8078 18.9129 97.1449 19.1477C97.4858 19.3826 97.9309 19.5 98.4801 19.5C99.1051 19.5 99.6013 19.3674 99.9688 19.1023C100.34 18.8333 100.526 18.5114 100.526 18.1364C100.526 17.8333 100.42 17.5795 100.207 17.375C99.9953 17.1667 99.6695 17.0114 99.2301 16.9091L97.7756 16.5682C96.9763 16.3788 96.3892 16.0852 96.0142 15.6875C95.643 15.286 95.4574 14.7841 95.4574 14.1818C95.4574 13.6894 95.5956 13.2538 95.8722 12.875C96.1525 12.4962 96.5331 12.1989 97.0142 11.983C97.4991 11.767 98.0483 11.6591 98.6619 11.6591C99.5256 11.6591 100.204 11.8485 100.696 12.2273C101.192 12.6061 101.545 13.1061 101.753 13.7273ZM107.726 11.7727V12.9091H103.203V11.7727H107.726ZM104.521 9.68182H105.862V18C105.862 18.3788 105.917 18.6629 106.027 18.8523C106.141 19.0379 106.285 19.1629 106.459 19.2273C106.637 19.2879 106.824 19.3182 107.021 19.3182C107.169 19.3182 107.29 19.3106 107.385 19.2955C107.48 19.2765 107.555 19.2614 107.612 19.25L107.885 20.4545C107.794 20.4886 107.667 20.5227 107.504 20.5568C107.341 20.5947 107.135 20.6136 106.885 20.6136C106.506 20.6136 106.135 20.5322 105.771 20.3693C105.411 20.2064 105.112 19.9583 104.874 19.625C104.639 19.2917 104.521 18.8712 104.521 18.3636V9.68182ZM115.107 23.7727C114.879 23.7727 114.677 23.7538 114.499 23.7159C114.321 23.6818 114.197 23.6477 114.129 23.6136L114.47 22.4318C114.796 22.5152 115.084 22.5455 115.334 22.5227C115.584 22.5 115.805 22.3883 115.999 22.1875C116.196 21.9905 116.375 21.6705 116.538 21.2273L116.788 20.5455L113.561 11.7727H115.016L117.425 18.7273H117.516L119.925 11.7727H121.379L117.675 21.7727C117.508 22.2235 117.302 22.5966 117.055 22.892C116.809 23.1913 116.523 23.4129 116.197 23.5568C115.875 23.7008 115.512 23.7727 115.107 23.7727ZM123.149 20.5V11.7727H124.49V20.5H123.149ZM123.831 10.3182C123.57 10.3182 123.344 10.2292 123.155 10.0511C122.969 9.87311 122.876 9.65909 122.876 9.40909C122.876 9.15909 122.969 8.94508 123.155 8.76705C123.344 8.58902 123.57 8.5 123.831 8.5C124.092 8.5 124.316 8.58902 124.501 8.76705C124.691 8.94508 124.786 9.15909 124.786 9.40909C124.786 9.65909 124.691 9.87311 124.501 10.0511C124.316 10.2292 124.092 10.3182 123.831 10.3182ZM130.605 20.6818C129.764 20.6818 129.039 20.4962 128.429 20.125C127.823 19.75 127.355 19.2273 127.026 18.5568C126.7 17.8826 126.537 17.0985 126.537 16.2045C126.537 15.3106 126.7 14.5227 127.026 13.8409C127.355 13.1553 127.813 12.6212 128.401 12.2386C128.991 11.8523 129.681 11.6591 130.469 11.6591C130.923 11.6591 131.372 11.7348 131.815 11.8864C132.259 12.0379 132.662 12.2841 133.026 12.625C133.389 12.9621 133.679 13.4091 133.895 13.9659C134.111 14.5227 134.219 15.2083 134.219 16.0227V16.5909H127.491V15.4318H132.855C132.855 14.9394 132.757 14.5 132.56 14.1136C132.366 13.7273 132.09 13.4223 131.73 13.1989C131.374 12.9754 130.954 12.8636 130.469 12.8636C129.935 12.8636 129.473 12.9962 129.082 13.2614C128.696 13.5227 128.399 13.8636 128.19 14.2841C127.982 14.7045 127.878 15.1553 127.878 15.6364V16.4091C127.878 17.0682 127.991 17.6269 128.219 18.0852C128.45 18.5398 128.77 18.8864 129.179 19.125C129.588 19.3598 130.063 19.4773 130.605 19.4773C130.957 19.4773 131.276 19.428 131.56 19.3295C131.848 19.2273 132.096 19.0758 132.304 18.875C132.512 18.6705 132.673 18.4167 132.787 18.1136L134.082 18.4773C133.946 18.9167 133.717 19.303 133.395 19.6364C133.073 19.9659 132.675 20.2235 132.202 20.4091C131.728 20.5909 131.196 20.6818 130.605 20.6818ZM137.599 8.86364V20.5H136.259V8.86364H137.599ZM143.351 20.6818C142.624 20.6818 141.982 20.4981 141.425 20.1307C140.868 19.7595 140.432 19.2367 140.118 18.5625C139.804 17.8845 139.646 17.0833 139.646 16.1591C139.646 15.2424 139.804 14.447 140.118 13.7727C140.432 13.0985 140.87 12.5777 141.43 12.2102C141.991 11.8428 142.639 11.6591 143.374 11.6591C143.942 11.6591 144.391 11.7538 144.72 11.9432C145.054 12.1288 145.307 12.3409 145.482 12.5795C145.66 12.8144 145.798 13.0076 145.896 13.1591H146.01V8.86364H147.351V20.5H146.055V19.1591H145.896C145.798 19.3182 145.658 19.5189 145.476 19.7614C145.294 20 145.035 20.214 144.697 20.4034C144.36 20.589 143.911 20.6818 143.351 20.6818ZM143.533 19.4773C144.071 19.4773 144.525 19.3371 144.896 19.0568C145.268 18.7727 145.55 18.3807 145.743 17.8807C145.936 17.3769 146.033 16.7955 146.033 16.1364C146.033 15.4848 145.938 14.9148 145.749 14.4261C145.559 13.9337 145.279 13.5511 144.908 13.2784C144.536 13.0019 144.078 12.8636 143.533 12.8636C142.964 12.8636 142.491 13.0095 142.112 13.3011C141.737 13.589 141.455 13.9811 141.266 14.4773C141.08 14.9697 140.987 15.5227 140.987 16.1364C140.987 16.7576 141.082 17.322 141.271 17.8295C141.464 18.3333 141.749 18.7348 142.124 19.0341C142.502 19.3295 142.972 19.4773 143.533 19.4773ZM154.675 20.5V8.86364H156.016V13.1591H156.129C156.228 13.0076 156.364 12.8144 156.538 12.5795C156.716 12.3409 156.97 12.1288 157.3 11.9432C157.633 11.7538 158.084 11.6591 158.652 11.6591C159.387 11.6591 160.035 11.8428 160.595 12.2102C161.156 12.5777 161.593 13.0985 161.908 13.7727C162.222 14.447 162.379 15.2424 162.379 16.1591C162.379 17.0833 162.222 17.8845 161.908 18.5625C161.593 19.2367 161.158 19.7595 160.601 20.1307C160.044 20.4981 159.402 20.6818 158.675 20.6818C158.114 20.6818 157.665 20.589 157.328 20.4034C156.991 20.214 156.732 20 156.55 19.7614C156.368 19.5189 156.228 19.3182 156.129 19.1591H155.97V20.5H154.675ZM155.993 16.1364C155.993 16.7955 156.089 17.3769 156.283 17.8807C156.476 18.3807 156.758 18.7727 157.129 19.0568C157.5 19.3371 157.955 19.4773 158.493 19.4773C159.054 19.4773 159.521 19.3295 159.896 19.0341C160.275 18.7348 160.559 18.3333 160.749 17.8295C160.942 17.322 161.038 16.7576 161.038 16.1364C161.038 15.5227 160.944 14.9697 160.754 14.4773C160.569 13.9811 160.286 13.589 159.908 13.3011C159.533 13.0095 159.061 12.8636 158.493 12.8636C157.947 12.8636 157.489 13.0019 157.118 13.2784C156.747 13.5511 156.466 13.9337 156.277 14.4261C156.088 14.9148 155.993 15.4848 155.993 16.1364ZM168.089 20.6818C167.249 20.6818 166.523 20.4962 165.913 20.125C165.307 19.75 164.839 19.2273 164.51 18.5568C164.184 17.8826 164.021 17.0985 164.021 16.2045C164.021 15.3106 164.184 14.5227 164.51 13.8409C164.839 13.1553 165.298 12.6212 165.885 12.2386C166.476 11.8523 167.165 11.6591 167.953 11.6591C168.408 11.6591 168.857 11.7348 169.3 11.8864C169.743 12.0379 170.146 12.2841 170.51 12.625C170.874 12.9621 171.163 13.4091 171.379 13.9659C171.595 14.5227 171.703 15.2083 171.703 16.0227V16.5909H164.976V15.4318H170.339C170.339 14.9394 170.241 14.5 170.044 14.1136C169.851 13.7273 169.574 13.4223 169.214 13.1989C168.858 12.9754 168.438 12.8636 167.953 12.8636C167.419 12.8636 166.957 12.9962 166.567 13.2614C166.18 13.5227 165.883 13.8636 165.675 14.2841C165.466 14.7045 165.362 15.1553 165.362 15.6364V16.4091C165.362 17.0682 165.476 17.6269 165.703 18.0852C165.934 18.5398 166.254 18.8864 166.663 19.125C167.072 19.3598 167.548 19.4773 168.089 19.4773C168.442 19.4773 168.76 19.428 169.044 19.3295C169.332 19.2273 169.58 19.0758 169.788 18.875C169.997 18.6705 170.158 18.4167 170.271 18.1136L171.567 18.4773C171.43 18.9167 171.201 19.303 170.879 19.6364C170.557 19.9659 170.16 20.2235 169.686 20.4091C169.213 20.5909 168.68 20.6818 168.089 20.6818ZM176.311 20.7045C175.758 20.7045 175.256 20.6004 174.805 20.392C174.355 20.1799 173.997 19.875 173.732 19.4773C173.466 19.0758 173.334 18.5909 173.334 18.0227C173.334 17.5227 173.432 17.1174 173.629 16.8068C173.826 16.4924 174.089 16.2462 174.419 16.0682C174.749 15.8902 175.112 15.7576 175.51 15.6705C175.911 15.5795 176.315 15.5076 176.72 15.4545C177.25 15.3864 177.68 15.3352 178.01 15.3011C178.343 15.2633 178.586 15.2008 178.737 15.1136C178.893 15.0265 178.97 14.875 178.97 14.6591V14.6136C178.97 14.053 178.817 13.6174 178.51 13.3068C178.207 12.9962 177.747 12.8409 177.129 12.8409C176.489 12.8409 175.987 12.9811 175.624 13.2614C175.26 13.5417 175.004 13.8409 174.857 14.1591L173.584 13.7045C173.811 13.1742 174.114 12.7614 174.493 12.4659C174.875 12.1667 175.292 11.9583 175.743 11.8409C176.197 11.7197 176.644 11.6591 177.084 11.6591C177.364 11.6591 177.686 11.6932 178.05 11.7614C178.417 11.8258 178.771 11.9602 179.112 12.1648C179.457 12.3693 179.743 12.678 179.97 13.0909C180.197 13.5038 180.311 14.0568 180.311 14.75V20.5H178.97V19.3182H178.902C178.811 19.5076 178.66 19.7102 178.447 19.9261C178.235 20.142 177.953 20.3258 177.601 20.4773C177.249 20.6288 176.819 20.7045 176.311 20.7045ZM176.516 19.5C177.046 19.5 177.493 19.3958 177.857 19.1875C178.224 18.9792 178.5 18.7102 178.686 18.3807C178.875 18.0511 178.97 17.7045 178.97 17.3409V16.1136C178.913 16.1818 178.788 16.2443 178.595 16.3011C178.406 16.3542 178.186 16.4015 177.936 16.4432C177.69 16.4811 177.449 16.5152 177.214 16.5455C176.983 16.572 176.796 16.5947 176.652 16.6136C176.304 16.6591 175.978 16.733 175.675 16.8352C175.375 16.9337 175.133 17.0833 174.947 17.2841C174.766 17.4811 174.675 17.75 174.675 18.0909C174.675 18.5568 174.847 18.9091 175.192 19.1477C175.54 19.3826 175.982 19.5 176.516 19.5ZM182.759 20.5V11.7727H184.054V13.0909H184.145C184.304 12.6591 184.592 12.3087 185.009 12.0398C185.425 11.7708 185.895 11.6364 186.418 11.6364C186.516 11.6364 186.639 11.6383 186.787 11.642C186.935 11.6458 187.046 11.6515 187.122 11.6591V13.0227C187.077 13.0114 186.973 12.9943 186.81 12.9716C186.651 12.9451 186.482 12.9318 186.304 12.9318C185.88 12.9318 185.501 13.0208 185.168 13.1989C184.838 13.3731 184.577 13.6155 184.384 13.9261C184.194 14.233 184.099 14.5833 184.099 14.9773V20.5H182.759ZM188.712 20.5V11.7727H190.053V20.5H188.712ZM189.393 10.3182C189.132 10.3182 188.907 10.2292 188.717 10.0511C188.532 9.87311 188.439 9.65909 188.439 9.40909C188.439 9.15909 188.532 8.94508 188.717 8.76705C188.907 8.58902 189.132 8.5 189.393 8.5C189.655 8.5 189.878 8.58902 190.064 8.76705C190.253 8.94508 190.348 9.15909 190.348 9.40909C190.348 9.65909 190.253 9.87311 190.064 10.0511C189.878 10.2292 189.655 10.3182 189.393 10.3182ZM193.849 15.25V20.5H192.509V11.7727H193.804V13.1364H193.918C194.122 12.6932 194.433 12.3371 194.849 12.0682C195.266 11.7955 195.804 11.6591 196.463 11.6591C197.054 11.6591 197.571 11.7803 198.014 12.0227C198.457 12.2614 198.802 12.625 199.048 13.1136C199.295 13.5985 199.418 14.2121 199.418 14.9545V20.5H198.077V15.0455C198.077 14.3598 197.899 13.8258 197.543 13.4432C197.187 13.0568 196.698 12.8636 196.077 12.8636C195.649 12.8636 195.266 12.9564 194.929 13.142C194.596 13.3277 194.332 13.5985 194.139 13.9545C193.946 14.3106 193.849 14.7424 193.849 15.25ZM205.391 23.9545C204.743 23.9545 204.186 23.8712 203.72 23.7045C203.254 23.5417 202.866 23.3258 202.555 23.0568C202.249 22.7917 202.004 22.5076 201.822 22.2045L202.891 21.4545C203.012 21.6136 203.165 21.7955 203.351 22C203.536 22.2083 203.79 22.3883 204.112 22.5398C204.438 22.6951 204.864 22.7727 205.391 22.7727C206.095 22.7727 206.677 22.6023 207.135 22.2614C207.593 21.9205 207.822 21.3864 207.822 20.6591V18.8864H207.709C207.61 19.0455 207.47 19.2424 207.288 19.4773C207.11 19.7083 206.853 19.9148 206.516 20.0966C206.182 20.2746 205.732 20.3636 205.163 20.3636C204.459 20.3636 203.826 20.197 203.266 19.8636C202.709 19.5303 202.268 19.0455 201.942 18.4091C201.62 17.7727 201.459 17 201.459 16.0909C201.459 15.197 201.616 14.4186 201.93 13.7557C202.245 13.089 202.682 12.5739 203.243 12.2102C203.804 11.8428 204.451 11.6591 205.186 11.6591C205.754 11.6591 206.205 11.7538 206.538 11.9432C206.875 12.1288 207.133 12.3409 207.311 12.5795C207.493 12.8144 207.633 13.0076 207.732 13.1591H207.868V11.7727H209.163V20.75C209.163 21.5 208.993 22.1098 208.652 22.5795C208.315 23.053 207.86 23.3996 207.288 23.6193C206.72 23.8428 206.088 23.9545 205.391 23.9545ZM205.345 19.1591C205.883 19.1591 206.338 19.036 206.709 18.7898C207.08 18.5436 207.362 18.1894 207.555 17.7273C207.749 17.2652 207.845 16.7121 207.845 16.0682C207.845 15.4394 207.75 14.8845 207.561 14.4034C207.372 13.9223 207.091 13.5455 206.72 13.2727C206.349 13 205.891 12.8636 205.345 12.8636C204.777 12.8636 204.304 13.0076 203.925 13.2955C203.55 13.5833 203.268 13.9697 203.078 14.4545C202.893 14.9394 202.8 15.4773 202.8 16.0682C202.8 16.6742 202.894 17.2102 203.084 17.6761C203.277 18.1383 203.561 18.5019 203.936 18.767C204.315 19.0284 204.785 19.1591 205.345 19.1591ZM216.118 23.7727V11.7727H217.413V13.1591H217.572C217.671 13.0076 217.807 12.8144 217.982 12.5795C218.16 12.3409 218.413 12.1288 218.743 11.9432C219.076 11.7538 219.527 11.6591 220.095 11.6591C220.83 11.6591 221.478 11.8428 222.038 12.2102C222.599 12.5777 223.036 13.0985 223.351 13.7727C223.665 14.447 223.822 15.2424 223.822 16.1591C223.822 17.0833 223.665 17.8845 223.351 18.5625C223.036 19.2367 222.601 19.7595 222.044 20.1307C221.487 20.4981 220.845 20.6818 220.118 20.6818C219.557 20.6818 219.108 20.589 218.771 20.4034C218.434 20.214 218.175 20 217.993 19.7614C217.811 19.5189 217.671 19.3182 217.572 19.1591H217.459V23.7727H216.118ZM217.436 16.1364C217.436 16.7955 217.533 17.3769 217.726 17.8807C217.919 18.3807 218.201 18.7727 218.572 19.0568C218.944 19.3371 219.398 19.4773 219.936 19.4773C220.497 19.4773 220.964 19.3295 221.339 19.0341C221.718 18.7348 222.002 18.3333 222.192 17.8295C222.385 17.322 222.482 16.7576 222.482 16.1364C222.482 15.5227 222.387 14.9697 222.197 14.4773C222.012 13.9811 221.73 13.589 221.351 13.3011C220.976 13.0095 220.504 12.8636 219.936 12.8636C219.391 12.8636 218.932 13.0019 218.561 13.2784C218.19 13.5511 217.91 13.9337 217.72 14.4261C217.531 14.9148 217.436 15.4848 217.436 16.1364ZM229.413 20.6818C228.625 20.6818 227.934 20.4943 227.339 20.1193C226.749 19.7443 226.286 19.2197 225.953 18.5455C225.624 17.8712 225.459 17.0833 225.459 16.1818C225.459 15.2727 225.624 14.4792 225.953 13.8011C226.286 13.1231 226.749 12.5966 227.339 12.2216C227.934 11.8466 228.625 11.6591 229.413 11.6591C230.201 11.6591 230.891 11.8466 231.482 12.2216C232.076 12.5966 232.538 13.1231 232.868 13.8011C233.201 14.4792 233.368 15.2727 233.368 16.1818C233.368 17.0833 233.201 17.8712 232.868 18.5455C232.538 19.2197 232.076 19.7443 231.482 20.1193C230.891 20.4943 230.201 20.6818 229.413 20.6818ZM229.413 19.4773C230.012 19.4773 230.504 19.3239 230.891 19.017C231.277 18.7102 231.563 18.3068 231.749 17.8068C231.934 17.3068 232.027 16.7652 232.027 16.1818C232.027 15.5985 231.934 15.0549 231.749 14.5511C231.563 14.0473 231.277 13.6402 230.891 13.3295C230.504 13.0189 230.012 12.8636 229.413 12.8636C228.815 12.8636 228.322 13.0189 227.936 13.3295C227.55 13.6402 227.264 14.0473 227.078 14.5511C226.893 15.0549 226.8 15.5985 226.8 16.1818C226.8 16.7652 226.893 17.3068 227.078 17.8068C227.264 18.3068 227.55 18.7102 227.936 19.017C228.322 19.3239 228.815 19.4773 229.413 19.4773ZM238.96 20.6818C238.172 20.6818 237.481 20.4943 236.886 20.1193C236.295 19.7443 235.833 19.2197 235.5 18.5455C235.17 17.8712 235.006 17.0833 235.006 16.1818C235.006 15.2727 235.17 14.4792 235.5 13.8011C235.833 13.1231 236.295 12.5966 236.886 12.2216C237.481 11.8466 238.172 11.6591 238.96 11.6591C239.748 11.6591 240.438 11.8466 241.028 12.2216C241.623 12.5966 242.085 13.1231 242.415 13.8011C242.748 14.4792 242.915 15.2727 242.915 16.1818C242.915 17.0833 242.748 17.8712 242.415 18.5455C242.085 19.2197 241.623 19.7443 241.028 20.1193C240.438 20.4943 239.748 20.6818 238.96 20.6818ZM238.96 19.4773C239.559 19.4773 240.051 19.3239 240.438 19.017C240.824 18.7102 241.11 18.3068 241.295 17.8068C241.481 17.3068 241.574 16.7652 241.574 16.1818C241.574 15.5985 241.481 15.0549 241.295 14.5511C241.11 14.0473 240.824 13.6402 240.438 13.3295C240.051 13.0189 239.559 12.8636 238.96 12.8636C238.362 12.8636 237.869 13.0189 237.483 13.3295C237.097 13.6402 236.811 14.0473 236.625 14.5511C236.439 15.0549 236.347 15.5985 236.347 16.1818C236.347 16.7652 236.439 17.3068 236.625 17.8068C236.811 18.3068 237.097 18.7102 237.483 19.017C237.869 19.3239 238.362 19.4773 238.96 19.4773ZM246.303 8.86364V20.5H244.962V8.86364H246.303ZM254.94 13.7273L253.736 14.0682C253.66 13.8674 253.548 13.6723 253.401 13.483C253.257 13.2898 253.06 13.1307 252.81 13.0057C252.56 12.8807 252.24 12.8182 251.849 12.8182C251.315 12.8182 250.87 12.9413 250.514 13.1875C250.162 13.4299 249.986 13.7386 249.986 14.1136C249.986 14.447 250.107 14.7102 250.349 14.9034C250.592 15.0966 250.971 15.2576 251.486 15.3864L252.781 15.7045C253.562 15.8939 254.143 16.1837 254.526 16.5739C254.908 16.9602 255.099 17.4583 255.099 18.0682C255.099 18.5682 254.955 19.0152 254.668 19.4091C254.384 19.803 253.986 20.1136 253.474 20.3409C252.963 20.5682 252.368 20.6818 251.69 20.6818C250.8 20.6818 250.063 20.4886 249.48 20.1023C248.897 19.7159 248.527 19.1515 248.372 18.4091L249.645 18.0909C249.766 18.5606 249.995 18.9129 250.332 19.1477C250.673 19.3826 251.118 19.5 251.668 19.5C252.293 19.5 252.789 19.3674 253.156 19.1023C253.527 18.8333 253.713 18.5114 253.713 18.1364C253.713 17.8333 253.607 17.5795 253.395 17.375C253.183 17.1667 252.857 17.0114 252.418 16.9091L250.963 16.5682C250.164 16.3788 249.577 16.0852 249.202 15.6875C248.83 15.286 248.645 14.7841 248.645 14.1818C248.645 13.6894 248.783 13.2538 249.06 12.875C249.34 12.4962 249.721 12.1989 250.202 11.983C250.687 11.767 251.236 11.6591 251.849 11.6591C252.713 11.6591 253.391 11.8485 253.884 12.2273C254.38 12.6061 254.732 13.1061 254.94 13.7273Z" fill="black"/>
<circle cx="15" cy="61" r="15" fill="black"/>
<path d="M9 62.24L13.8 66.08L21 56" stroke="#013CFF" stroke-width="2.5" stroke-linecap="round" stroke-linejoin="round"/>
<path d="M39.2571 56.1136V54.8636H47.9844V56.1136H44.3253V66.5H42.9162V56.1136H39.2571ZM49.071 66.5V57.7727H50.3665V59.0909H50.4574C50.6165 58.6591 50.9044 58.3087 51.321 58.0398C51.7377 57.7708 52.2074 57.6364 52.7301 57.6364C52.8286 57.6364 52.9517 57.6383 53.0994 57.642C53.2472 57.6458 53.3589 57.6515 53.4347 57.6591V59.0227C53.3892 59.0114 53.285 58.9943 53.1222 58.9716C52.9631 58.9451 52.7945 58.9318 52.6165 58.9318C52.1922 58.9318 51.8134 59.0208 51.4801 59.1989C51.1506 59.3731 50.8892 59.6155 50.696 59.9261C50.5066 60.233 50.4119 60.5833 50.4119 60.9773V66.5H49.071ZM57.5923 66.7045C57.0393 66.7045 56.5374 66.6004 56.0866 66.392C55.6359 66.1799 55.2779 65.875 55.0128 65.4773C54.7476 65.0758 54.6151 64.5909 54.6151 64.0227C54.6151 63.5227 54.7135 63.1174 54.9105 62.8068C55.1075 62.4924 55.3707 62.2462 55.7003 62.0682C56.0298 61.8902 56.3935 61.7576 56.7912 61.6705C57.1927 61.5795 57.5961 61.5076 58.0014 61.4545C58.5317 61.3864 58.9616 61.3352 59.2912 61.3011C59.6245 61.2633 59.867 61.2008 60.0185 61.1136C60.1738 61.0265 60.2514 60.875 60.2514 60.6591V60.6136C60.2514 60.053 60.098 59.6174 59.7912 59.3068C59.4882 58.9962 59.0279 58.8409 58.4105 58.8409C57.7704 58.8409 57.2685 58.9811 56.9048 59.2614C56.5412 59.5417 56.2855 59.8409 56.1378 60.1591L54.8651 59.7045C55.0923 59.1742 55.3954 58.7614 55.7741 58.4659C56.1567 58.1667 56.5734 57.9583 57.0241 57.8409C57.4787 57.7197 57.9257 57.6591 58.3651 57.6591C58.6454 57.6591 58.9673 57.6932 59.331 57.7614C59.6984 57.8258 60.0526 57.9602 60.3935 58.1648C60.7382 58.3693 61.0241 58.678 61.2514 59.0909C61.4787 59.5038 61.5923 60.0568 61.5923 60.75V66.5H60.2514V65.3182H60.1832C60.0923 65.5076 59.9408 65.7102 59.7287 65.9261C59.5166 66.142 59.2344 66.3258 58.8821 66.4773C58.5298 66.6288 58.0999 66.7045 57.5923 66.7045ZM57.7969 65.5C58.3272 65.5 58.7741 65.3958 59.1378 65.1875C59.5052 64.9792 59.7817 64.7102 59.9673 64.3807C60.1567 64.0511 60.2514 63.7045 60.2514 63.3409V62.1136C60.1946 62.1818 60.0696 62.2443 59.8764 62.3011C59.687 62.3542 59.4673 62.4015 59.2173 62.4432C58.9711 62.4811 58.7306 62.5152 58.4957 62.5455C58.2647 62.572 58.0772 62.5947 57.9332 62.6136C57.5848 62.6591 57.259 62.733 56.956 62.8352C56.6567 62.9337 56.4143 63.0833 56.2287 63.2841C56.0469 63.4811 55.956 63.75 55.956 64.0909C55.956 64.5568 56.1283 64.9091 56.473 65.1477C56.8215 65.3826 57.2628 65.5 57.7969 65.5ZM67.3352 66.6818C66.608 66.6818 65.9659 66.4981 65.4091 66.1307C64.8523 65.7595 64.4167 65.2367 64.1023 64.5625C63.7879 63.8845 63.6307 63.0833 63.6307 62.1591C63.6307 61.2424 63.7879 60.447 64.1023 59.7727C64.4167 59.0985 64.8542 58.5777 65.4148 58.2102C65.9754 57.8428 66.6231 57.6591 67.358 57.6591C67.9261 57.6591 68.375 57.7538 68.7045 57.9432C69.0379 58.1288 69.2917 58.3409 69.4659 58.5795C69.6439 58.8144 69.7822 59.0076 69.8807 59.1591H69.9943V54.8636H71.3352V66.5H70.0398V65.1591H69.8807C69.7822 65.3182 69.642 65.5189 69.4602 65.7614C69.2784 66 69.0189 66.214 68.6818 66.4034C68.3447 66.589 67.8958 66.6818 67.3352 66.6818ZM67.517 65.4773C68.0549 65.4773 68.5095 65.3371 68.8807 65.0568C69.2519 64.7727 69.5341 64.3807 69.7273 63.8807C69.9205 63.3769 70.017 62.7955 70.017 62.1364C70.017 61.4848 69.9223 60.9148 69.733 60.4261C69.5436 59.9337 69.2633 59.5511 68.892 59.2784C68.5208 59.0019 68.0625 58.8636 67.517 58.8636C66.9489 58.8636 66.4754 59.0095 66.0966 59.3011C65.7216 59.589 65.4394 59.9811 65.25 60.4773C65.0644 60.9697 64.9716 61.5227 64.9716 62.1364C64.9716 62.7576 65.0663 63.322 65.2557 63.8295C65.4489 64.3333 65.733 64.7348 66.108 65.0341C66.4867 65.3295 66.9564 65.4773 67.517 65.4773ZM77.6364 66.6818C76.7955 66.6818 76.0701 66.4962 75.4602 66.125C74.8542 65.75 74.3864 65.2273 74.0568 64.5568C73.7311 63.8826 73.5682 63.0985 73.5682 62.2045C73.5682 61.3106 73.7311 60.5227 74.0568 59.8409C74.3864 59.1553 74.8447 58.6212 75.4318 58.2386C76.0227 57.8523 76.7121 57.6591 77.5 57.6591C77.9545 57.6591 78.4034 57.7348 78.8466 57.8864C79.2898 58.0379 79.6932 58.2841 80.0568 58.625C80.4205 58.9621 80.7102 59.4091 80.9261 59.9659C81.142 60.5227 81.25 61.2083 81.25 62.0227V62.5909H74.5227V61.4318H79.8864C79.8864 60.9394 79.7879 60.5 79.5909 60.1136C79.3977 59.7273 79.1212 59.4223 78.7614 59.1989C78.4053 58.9754 77.9848 58.8636 77.5 58.8636C76.9659 58.8636 76.5038 58.9962 76.1136 59.2614C75.7273 59.5227 75.4299 59.8636 75.2216 60.2841C75.0133 60.7045 74.9091 61.1553 74.9091 61.6364V62.4091C74.9091 63.0682 75.0227 63.6269 75.25 64.0852C75.4811 64.5398 75.8011 64.8864 76.2102 65.125C76.6193 65.3598 77.0947 65.4773 77.6364 65.4773C77.9886 65.4773 78.3068 65.428 78.5909 65.3295C78.8788 65.2273 79.1269 65.0758 79.3352 64.875C79.5436 64.6705 79.7045 64.4167 79.8182 64.1136L81.1136 64.4773C80.9773 64.9167 80.7481 65.303 80.4261 65.6364C80.1042 65.9659 79.7064 66.2235 79.233 66.4091C78.7595 66.5909 78.2273 66.6818 77.6364 66.6818ZM90.358 66.7045C89.8049 66.7045 89.303 66.6004 88.8523 66.392C88.4015 66.1799 88.0436 65.875 87.7784 65.4773C87.5133 65.0758 87.3807 64.5909 87.3807 64.0227C87.3807 63.5227 87.4792 63.1174 87.6761 62.8068C87.8731 62.4924 88.1364 62.2462 88.4659 62.0682C88.7955 61.8902 89.1591 61.7576 89.5568 61.6705C89.9583 61.5795 90.3617 61.5076 90.767 61.4545C91.2973 61.3864 91.7273 61.3352 92.0568 61.3011C92.3902 61.2633 92.6326 61.2008 92.7841 61.1136C92.9394 61.0265 93.017 60.875 93.017 60.6591V60.6136C93.017 60.053 92.8636 59.6174 92.5568 59.3068C92.2538 58.9962 91.7936 58.8409 91.1761 58.8409C90.536 58.8409 90.0341 58.9811 89.6705 59.2614C89.3068 59.5417 89.0511 59.8409 88.9034 60.1591L87.6307 59.7045C87.858 59.1742 88.161 58.7614 88.5398 58.4659C88.9223 58.1667 89.339 57.9583 89.7898 57.8409C90.2443 57.7197 90.6913 57.6591 91.1307 57.6591C91.411 57.6591 91.733 57.6932 92.0966 57.7614C92.464 57.8258 92.8182 57.9602 93.1591 58.1648C93.5038 58.3693 93.7898 58.678 94.017 59.0909C94.2443 59.5038 94.358 60.0568 94.358 60.75V66.5H93.017V65.3182H92.9489C92.858 65.5076 92.7064 65.7102 92.4943 65.9261C92.2822 66.142 92 66.3258 91.6477 66.4773C91.2955 66.6288 90.8655 66.7045 90.358 66.7045ZM90.5625 65.5C91.0928 65.5 91.5398 65.3958 91.9034 65.1875C92.2708 64.9792 92.5473 64.7102 92.733 64.3807C92.9223 64.0511 93.017 63.7045 93.017 63.3409V62.1136C92.9602 62.1818 92.8352 62.2443 92.642 62.3011C92.4527 62.3542 92.233 62.4015 91.983 62.4432C91.7367 62.4811 91.4962 62.5152 91.2614 62.5455C91.0303 62.572 90.8428 62.5947 90.6989 62.6136C90.3504 62.6591 90.0246 62.733 89.7216 62.8352C89.4223 62.9337 89.1799 63.0833 88.9943 63.2841C88.8125 63.4811 88.7216 63.75 88.7216 64.0909C88.7216 64.5568 88.8939 64.9091 89.2386 65.1477C89.5871 65.3826 90.0284 65.5 90.5625 65.5ZM100.351 66.6818C99.5327 66.6818 98.8281 66.4886 98.2372 66.1023C97.6463 65.7159 97.1918 65.1837 96.8736 64.5057C96.5554 63.8277 96.3963 63.053 96.3963 62.1818C96.3963 61.2955 96.5592 60.5133 96.8849 59.8352C97.2145 59.1534 97.6728 58.6212 98.2599 58.2386C98.8509 57.8523 99.5402 57.6591 100.328 57.6591C100.942 57.6591 101.495 57.7727 101.987 58C102.48 58.2273 102.883 58.5455 103.197 58.9545C103.512 59.3636 103.707 59.8409 103.783 60.3864H102.442C102.339 59.9886 102.112 59.6364 101.76 59.3295C101.411 59.0189 100.942 58.8636 100.351 58.8636C99.8281 58.8636 99.3698 59 98.9759 59.2727C98.5857 59.5417 98.2808 59.9223 98.0611 60.4148C97.8452 60.9034 97.7372 61.4773 97.7372 62.1364C97.7372 62.8106 97.8433 63.3977 98.0554 63.8977C98.2713 64.3977 98.5743 64.786 98.9645 65.0625C99.3584 65.339 99.8205 65.4773 100.351 65.4773C100.699 65.4773 101.016 65.4167 101.3 65.2955C101.584 65.1742 101.824 65 102.021 64.7727C102.218 64.5455 102.358 64.2727 102.442 63.9545H103.783C103.707 64.4697 103.519 64.9337 103.22 65.3466C102.925 65.7557 102.533 66.0814 102.044 66.3239C101.559 66.5625 100.995 66.6818 100.351 66.6818ZM105.743 66.5V57.7727H107.038V59.0909H107.129C107.288 58.6591 107.576 58.3087 107.993 58.0398C108.41 57.7708 108.879 57.6364 109.402 57.6364C109.5 57.6364 109.624 57.6383 109.771 57.642C109.919 57.6458 110.031 57.6515 110.107 57.6591V59.0227C110.061 59.0114 109.957 58.9943 109.794 58.9716C109.635 58.9451 109.466 58.9318 109.288 58.9318C108.864 58.9318 108.485 59.0208 108.152 59.1989C107.822 59.3731 107.561 59.6155 107.368 59.9261C107.179 60.233 107.084 60.5833 107.084 60.9773V66.5H105.743ZM114.976 66.6818C114.188 66.6818 113.497 66.4943 112.902 66.1193C112.311 65.7443 111.849 65.2197 111.516 64.5455C111.186 63.8712 111.021 63.0833 111.021 62.1818C111.021 61.2727 111.186 60.4792 111.516 59.8011C111.849 59.1231 112.311 58.5966 112.902 58.2216C113.497 57.8466 114.188 57.6591 114.976 57.6591C115.764 57.6591 116.453 57.8466 117.044 58.2216C117.639 58.5966 118.101 59.1231 118.43 59.8011C118.764 60.4792 118.93 61.2727 118.93 62.1818C118.93 63.0833 118.764 63.8712 118.43 64.5455C118.101 65.2197 117.639 65.7443 117.044 66.1193C116.453 66.4943 115.764 66.6818 114.976 66.6818ZM114.976 65.4773C115.574 65.4773 116.067 65.3239 116.453 65.017C116.839 64.7102 117.125 64.3068 117.311 63.8068C117.497 63.3068 117.589 62.7652 117.589 62.1818C117.589 61.5985 117.497 61.0549 117.311 60.5511C117.125 60.0473 116.839 59.6402 116.453 59.3295C116.067 59.0189 115.574 58.8636 114.976 58.8636C114.377 58.8636 113.885 59.0189 113.499 59.3295C113.112 59.6402 112.826 60.0473 112.641 60.5511C112.455 61.0549 112.362 61.5985 112.362 62.1818C112.362 62.7652 112.455 63.3068 112.641 63.8068C112.826 64.3068 113.112 64.7102 113.499 65.017C113.885 65.3239 114.377 65.4773 114.976 65.4773ZM127.159 59.7273L125.955 60.0682C125.879 59.8674 125.767 59.6723 125.619 59.483C125.475 59.2898 125.278 59.1307 125.028 59.0057C124.778 58.8807 124.458 58.8182 124.068 58.8182C123.534 58.8182 123.089 58.9413 122.733 59.1875C122.381 59.4299 122.205 59.7386 122.205 60.1136C122.205 60.447 122.326 60.7102 122.568 60.9034C122.811 61.0966 123.189 61.2576 123.705 61.3864L125 61.7045C125.78 61.8939 126.362 62.1837 126.744 62.5739C127.127 62.9602 127.318 63.4583 127.318 64.0682C127.318 64.5682 127.174 65.0152 126.886 65.4091C126.602 65.803 126.205 66.1136 125.693 66.3409C125.182 66.5682 124.587 66.6818 123.909 66.6818C123.019 66.6818 122.282 66.4886 121.699 66.1023C121.116 65.7159 120.746 65.1515 120.591 64.4091L121.864 64.0909C121.985 64.5606 122.214 64.9129 122.551 65.1477C122.892 65.3826 123.337 65.5 123.886 65.5C124.511 65.5 125.008 65.3674 125.375 65.1023C125.746 64.8333 125.932 64.5114 125.932 64.1364C125.932 63.8333 125.826 63.5795 125.614 63.375C125.402 63.1667 125.076 63.0114 124.636 62.9091L123.182 62.5682C122.383 62.3788 121.795 62.0852 121.42 61.6875C121.049 61.286 120.864 60.7841 120.864 60.1818C120.864 59.6894 121.002 59.2538 121.278 58.875C121.559 58.4962 121.939 58.1989 122.42 57.983C122.905 57.767 123.455 57.6591 124.068 57.6591C124.932 57.6591 125.61 57.8485 126.102 58.2273C126.598 58.6061 126.951 59.1061 127.159 59.7273ZM135.518 59.7273L134.314 60.0682C134.238 59.8674 134.126 59.6723 133.979 59.483C133.835 59.2898 133.638 59.1307 133.388 59.0057C133.138 58.8807 132.818 58.8182 132.428 58.8182C131.893 58.8182 131.448 58.9413 131.092 59.1875C130.74 59.4299 130.564 59.7386 130.564 60.1136C130.564 60.447 130.685 60.7102 130.928 60.9034C131.17 61.0966 131.549 61.2576 132.064 61.3864L133.359 61.7045C134.14 61.8939 134.721 62.1837 135.104 62.5739C135.486 62.9602 135.678 63.4583 135.678 64.0682C135.678 64.5682 135.534 65.0152 135.246 65.4091C134.962 65.803 134.564 66.1136 134.053 66.3409C133.541 66.5682 132.946 66.6818 132.268 66.6818C131.378 66.6818 130.642 66.4886 130.058 66.1023C129.475 65.7159 129.106 65.1515 128.95 64.4091L130.223 64.0909C130.344 64.5606 130.573 64.9129 130.911 65.1477C131.251 65.3826 131.696 65.5 132.246 65.5C132.871 65.5 133.367 65.3674 133.734 65.1023C134.106 64.8333 134.291 64.5114 134.291 64.1364C134.291 63.8333 134.185 63.5795 133.973 63.375C133.761 63.1667 133.435 63.0114 132.996 62.9091L131.541 62.5682C130.742 62.3788 130.155 62.0852 129.78 61.6875C129.409 61.286 129.223 60.7841 129.223 60.1818C129.223 59.6894 129.361 59.2538 129.638 58.875C129.918 58.4962 130.299 58.1989 130.78 57.983C131.265 57.767 131.814 57.6591 132.428 57.6591C133.291 57.6591 133.969 57.8485 134.462 58.2273C134.958 58.6061 135.31 59.1061 135.518 59.7273ZM148.378 59.7273L147.173 60.0682C147.098 59.8674 146.986 59.6723 146.838 59.483C146.694 59.2898 146.497 59.1307 146.247 59.0057C145.997 58.8807 145.677 58.8182 145.287 58.8182C144.753 58.8182 144.308 58.9413 143.952 59.1875C143.599 59.4299 143.423 59.7386 143.423 60.1136C143.423 60.447 143.545 60.7102 143.787 60.9034C144.029 61.0966 144.408 61.2576 144.923 61.3864L146.219 61.7045C146.999 61.8939 147.58 62.1837 147.963 62.5739C148.346 62.9602 148.537 63.4583 148.537 64.0682C148.537 64.5682 148.393 65.0152 148.105 65.4091C147.821 65.803 147.423 66.1136 146.912 66.3409C146.401 66.5682 145.806 66.6818 145.128 66.6818C144.238 66.6818 143.501 66.4886 142.918 66.1023C142.334 65.7159 141.965 65.1515 141.81 64.4091L143.082 64.0909C143.204 64.5606 143.433 64.9129 143.77 65.1477C144.111 65.3826 144.556 65.5 145.105 65.5C145.73 65.5 146.226 65.3674 146.594 65.1023C146.965 64.8333 147.151 64.5114 147.151 64.1364C147.151 63.8333 147.045 63.5795 146.832 63.375C146.62 63.1667 146.295 63.0114 145.855 62.9091L144.401 62.5682C143.601 62.3788 143.014 62.0852 142.639 61.6875C142.268 61.286 142.082 60.7841 142.082 60.1818C142.082 59.6894 142.221 59.2538 142.497 58.875C142.777 58.4962 143.158 58.1989 143.639 57.983C144.124 57.767 144.673 57.6591 145.287 57.6591C146.151 57.6591 146.829 57.8485 147.321 58.2273C147.817 58.6061 148.17 59.1061 148.378 59.7273ZM154.214 66.6818C153.374 66.6818 152.648 66.4962 152.038 66.125C151.432 65.75 150.964 65.2273 150.635 64.5568C150.309 63.8826 150.146 63.0985 150.146 62.2045C150.146 61.3106 150.309 60.5227 150.635 59.8409C150.964 59.1553 151.423 58.6212 152.01 58.2386C152.601 57.8523 153.29 57.6591 154.078 57.6591C154.533 57.6591 154.982 57.7348 155.425 57.8864C155.868 58.0379 156.271 58.2841 156.635 58.625C156.999 58.9621 157.288 59.4091 157.504 59.9659C157.72 60.5227 157.828 61.2083 157.828 62.0227V62.5909H151.101V61.4318H156.464C156.464 60.9394 156.366 60.5 156.169 60.1136C155.976 59.7273 155.699 59.4223 155.339 59.1989C154.983 58.9754 154.563 58.8636 154.078 58.8636C153.544 58.8636 153.082 58.9962 152.692 59.2614C152.305 59.5227 152.008 59.8636 151.8 60.2841C151.591 60.7045 151.487 61.1553 151.487 61.6364V62.4091C151.487 63.0682 151.601 63.6269 151.828 64.0852C152.059 64.5398 152.379 64.8864 152.788 65.125C153.197 65.3598 153.673 65.4773 154.214 65.4773C154.567 65.4773 154.885 65.428 155.169 65.3295C155.457 65.2273 155.705 65.0758 155.913 64.875C156.122 64.6705 156.283 64.4167 156.396 64.1136L157.692 64.4773C157.555 64.9167 157.326 65.303 157.004 65.6364C156.682 65.9659 156.285 66.2235 155.811 66.4091C155.338 66.5909 154.805 66.6818 154.214 66.6818ZM166.739 57.7727L163.511 66.5H162.148L158.92 57.7727H160.375L162.784 64.7273H162.875L165.284 57.7727H166.739ZM171.855 66.6818C171.014 66.6818 170.289 66.4962 169.679 66.125C169.073 65.75 168.605 65.2273 168.276 64.5568C167.95 63.8826 167.787 63.0985 167.787 62.2045C167.787 61.3106 167.95 60.5227 168.276 59.8409C168.605 59.1553 169.063 58.6212 169.651 58.2386C170.241 57.8523 170.931 57.6591 171.719 57.6591C172.173 57.6591 172.622 57.7348 173.065 57.8864C173.509 58.0379 173.912 58.2841 174.276 58.625C174.639 58.9621 174.929 59.4091 175.145 59.9659C175.361 60.5227 175.469 61.2083 175.469 62.0227V62.5909H168.741V61.4318H174.105C174.105 60.9394 174.007 60.5 173.81 60.1136C173.616 59.7273 173.34 59.4223 172.98 59.1989C172.624 58.9754 172.204 58.8636 171.719 58.8636C171.185 58.8636 170.723 58.9962 170.332 59.2614C169.946 59.5227 169.649 59.8636 169.44 60.2841C169.232 60.7045 169.128 61.1553 169.128 61.6364V62.4091C169.128 63.0682 169.241 63.6269 169.469 64.0852C169.7 64.5398 170.02 64.8864 170.429 65.125C170.838 65.3598 171.313 65.4773 171.855 65.4773C172.207 65.4773 172.526 65.428 172.81 65.3295C173.098 65.2273 173.346 65.0758 173.554 64.875C173.762 64.6705 173.923 64.4167 174.037 64.1136L175.332 64.4773C175.196 64.9167 174.967 65.303 174.645 65.6364C174.323 65.9659 173.925 66.2235 173.452 66.4091C172.978 66.5909 172.446 66.6818 171.855 66.6818ZM177.509 66.5V57.7727H178.804V59.0909H178.895C179.054 58.6591 179.342 58.3087 179.759 58.0398C180.175 57.7708 180.645 57.6364 181.168 57.6364C181.266 57.6364 181.389 57.6383 181.537 57.642C181.685 57.6458 181.796 57.6515 181.872 57.6591V59.0227C181.827 59.0114 181.723 58.9943 181.56 58.9716C181.401 58.9451 181.232 58.9318 181.054 58.9318C180.63 58.9318 180.251 59.0208 179.918 59.1989C179.588 59.3731 179.327 59.6155 179.134 59.9261C178.944 60.233 178.849 60.5833 178.849 60.9773V66.5H177.509ZM186.03 66.7045C185.477 66.7045 184.975 66.6004 184.524 66.392C184.073 66.1799 183.715 65.875 183.45 65.4773C183.185 65.0758 183.053 64.5909 183.053 64.0227C183.053 63.5227 183.151 63.1174 183.348 62.8068C183.545 62.4924 183.808 62.2462 184.138 62.0682C184.467 61.8902 184.831 61.7576 185.229 61.6705C185.63 61.5795 186.034 61.5076 186.439 61.4545C186.969 61.3864 187.399 61.3352 187.729 61.3011C188.062 61.2633 188.304 61.2008 188.456 61.1136C188.611 61.0265 188.689 60.875 188.689 60.6591V60.6136C188.689 60.053 188.536 59.6174 188.229 59.3068C187.926 58.9962 187.465 58.8409 186.848 58.8409C186.208 58.8409 185.706 58.9811 185.342 59.2614C184.979 59.5417 184.723 59.8409 184.575 60.1591L183.303 59.7045C183.53 59.1742 183.833 58.7614 184.212 58.4659C184.594 58.1667 185.011 57.9583 185.462 57.8409C185.916 57.7197 186.363 57.6591 186.803 57.6591C187.083 57.6591 187.405 57.6932 187.768 57.7614C188.136 57.8258 188.49 57.9602 188.831 58.1648C189.176 58.3693 189.462 58.678 189.689 59.0909C189.916 59.5038 190.03 60.0568 190.03 60.75V66.5H188.689V65.3182H188.621C188.53 65.5076 188.378 65.7102 188.166 65.9261C187.954 66.142 187.672 66.3258 187.32 66.4773C186.967 66.6288 186.537 66.7045 186.03 66.7045ZM186.234 65.5C186.765 65.5 187.212 65.3958 187.575 65.1875C187.943 64.9792 188.219 64.7102 188.405 64.3807C188.594 64.0511 188.689 63.7045 188.689 63.3409V62.1136C188.632 62.1818 188.507 62.2443 188.314 62.3011C188.125 62.3542 187.905 62.4015 187.655 62.4432C187.409 62.4811 187.168 62.5152 186.933 62.5455C186.702 62.572 186.515 62.5947 186.371 62.6136C186.022 62.6591 185.696 62.733 185.393 62.8352C185.094 62.9337 184.852 63.0833 184.666 63.2841C184.484 63.4811 184.393 63.75 184.393 64.0909C184.393 64.5568 184.566 64.9091 184.911 65.1477C185.259 65.3826 185.7 65.5 186.234 65.5ZM193.818 54.8636V66.5H192.477V54.8636H193.818ZM204.07 66.6818C203.342 66.6818 202.7 66.4981 202.143 66.1307C201.587 65.7595 201.151 65.2367 200.837 64.5625C200.522 63.8845 200.365 63.0833 200.365 62.1591C200.365 61.2424 200.522 60.447 200.837 59.7727C201.151 59.0985 201.589 58.5777 202.149 58.2102C202.71 57.8428 203.357 57.6591 204.092 57.6591C204.661 57.6591 205.109 57.7538 205.439 57.9432C205.772 58.1288 206.026 58.3409 206.2 58.5795C206.378 58.8144 206.517 59.0076 206.615 59.1591H206.729V54.8636H208.07V66.5H206.774V65.1591H206.615C206.517 65.3182 206.376 65.5189 206.195 65.7614C206.013 66 205.753 66.214 205.416 66.4034C205.079 66.589 204.63 66.6818 204.07 66.6818ZM204.251 65.4773C204.789 65.4773 205.244 65.3371 205.615 65.0568C205.986 64.7727 206.268 64.3807 206.462 63.8807C206.655 63.3769 206.751 62.7955 206.751 62.1364C206.751 61.4848 206.657 60.9148 206.467 60.4261C206.278 59.9337 205.998 59.5511 205.626 59.2784C205.255 59.0019 204.797 58.8636 204.251 58.8636C203.683 58.8636 203.21 59.0095 202.831 59.3011C202.456 59.589 202.174 59.9811 201.984 60.4773C201.799 60.9697 201.706 61.5227 201.706 62.1364C201.706 62.7576 201.801 63.322 201.99 63.8295C202.183 64.3333 202.467 64.7348 202.842 65.0341C203.221 65.3295 203.691 65.4773 204.251 65.4773ZM214.371 66.6818C213.53 66.6818 212.804 66.4962 212.195 66.125C211.589 65.75 211.121 65.2273 210.791 64.5568C210.465 63.8826 210.303 63.0985 210.303 62.2045C210.303 61.3106 210.465 60.5227 210.791 59.8409C211.121 59.1553 211.579 58.6212 212.166 58.2386C212.757 57.8523 213.446 57.6591 214.234 57.6591C214.689 57.6591 215.138 57.7348 215.581 57.8864C216.024 58.0379 216.428 58.2841 216.791 58.625C217.155 58.9621 217.445 59.4091 217.661 59.9659C217.876 60.5227 217.984 61.2083 217.984 62.0227V62.5909H211.257V61.4318H216.621C216.621 60.9394 216.522 60.5 216.325 60.1136C216.132 59.7273 215.856 59.4223 215.496 59.1989C215.14 58.9754 214.719 58.8636 214.234 58.8636C213.7 58.8636 213.238 58.9962 212.848 59.2614C212.462 59.5227 212.164 59.8636 211.956 60.2841C211.748 60.7045 211.643 61.1553 211.643 61.6364V62.4091C211.643 63.0682 211.757 63.6269 211.984 64.0852C212.215 64.5398 212.536 64.8864 212.945 65.125C213.354 65.3598 213.829 65.4773 214.371 65.4773C214.723 65.4773 215.041 65.428 215.325 65.3295C215.613 65.2273 215.861 65.0758 216.07 64.875C216.278 64.6705 216.439 64.4167 216.553 64.1136L217.848 64.4773C217.712 64.9167 217.482 65.303 217.161 65.6364C216.839 65.9659 216.441 66.2235 215.967 66.4091C215.494 66.5909 214.962 66.6818 214.371 66.6818ZM220.79 57.7727L222.881 61.3409L224.972 57.7727H226.517L223.699 62.1364L226.517 66.5H224.972L222.881 63.1136L220.79 66.5H219.244L222.017 62.1364L219.244 57.7727H220.79ZM231.73 66.6818C230.889 66.6818 230.164 66.4962 229.554 66.125C228.948 65.75 228.48 65.2273 228.151 64.5568C227.825 63.8826 227.662 63.0985 227.662 62.2045C227.662 61.3106 227.825 60.5227 228.151 59.8409C228.48 59.1553 228.938 58.6212 229.526 58.2386C230.116 57.8523 230.806 57.6591 231.594 57.6591C232.048 57.6591 232.497 57.7348 232.94 57.8864C233.384 58.0379 233.787 58.2841 234.151 58.625C234.514 58.9621 234.804 59.4091 235.02 59.9659C235.236 60.5227 235.344 61.2083 235.344 62.0227V62.5909H228.616V61.4318H233.98C233.98 60.9394 233.882 60.5 233.685 60.1136C233.491 59.7273 233.215 59.4223 232.855 59.1989C232.499 58.9754 232.079 58.8636 231.594 58.8636C231.06 58.8636 230.598 58.9962 230.207 59.2614C229.821 59.5227 229.524 59.8636 229.315 60.2841C229.107 60.7045 229.003 61.1553 229.003 61.6364V62.4091C229.003 63.0682 229.116 63.6269 229.344 64.0852C229.575 64.5398 229.895 64.8864 230.304 65.125C230.713 65.3598 231.188 65.4773 231.73 65.4773C232.082 65.4773 232.401 65.428 232.685 65.3295C232.973 65.2273 233.221 65.0758 233.429 64.875C233.637 64.6705 233.798 64.4167 233.912 64.1136L235.207 64.4773C235.071 64.9167 234.842 65.303 234.52 65.6364C234.198 65.9659 233.8 66.2235 233.327 66.4091C232.853 66.5909 232.321 66.6818 231.73 66.6818ZM243.565 59.7273L242.361 60.0682C242.285 59.8674 242.173 59.6723 242.026 59.483C241.882 59.2898 241.685 59.1307 241.435 59.0057C241.185 58.8807 240.865 58.8182 240.474 58.8182C239.94 58.8182 239.495 58.9413 239.139 59.1875C238.787 59.4299 238.611 59.7386 238.611 60.1136C238.611 60.447 238.732 60.7102 238.974 60.9034C239.217 61.0966 239.596 61.2576 240.111 61.3864L241.406 61.7045C242.187 61.8939 242.768 62.1837 243.151 62.5739C243.533 62.9602 243.724 63.4583 243.724 64.0682C243.724 64.5682 243.58 65.0152 243.293 65.4091C243.009 65.803 242.611 66.1136 242.099 66.3409C241.588 66.5682 240.993 66.6818 240.315 66.6818C239.425 66.6818 238.688 66.4886 238.105 66.1023C237.522 65.7159 237.152 65.1515 236.997 64.4091L238.27 64.0909C238.391 64.5606 238.62 64.9129 238.957 65.1477C239.298 65.3826 239.743 65.5 240.293 65.5C240.918 65.5 241.414 65.3674 241.781 65.1023C242.152 64.8333 242.338 64.5114 242.338 64.1364C242.338 63.8333 242.232 63.5795 242.02 63.375C241.808 63.1667 241.482 63.0114 241.043 62.9091L239.588 62.5682C238.789 62.3788 238.202 62.0852 237.827 61.6875C237.455 61.286 237.27 60.7841 237.27 60.1818C237.27 59.6894 237.408 59.2538 237.685 58.875C237.965 58.4962 238.346 58.1989 238.827 57.983C239.312 57.767 239.861 57.6591 240.474 57.6591C241.338 57.6591 242.016 57.8485 242.509 58.2273C243.005 58.6061 243.357 59.1061 243.565 59.7273Z" fill="black"/>
<circle cx="15" cy="107" r="15" fill="black"/>
<path d="M9 108.24L13.8 112.08L21 102" stroke="#013CFF" stroke-width="2.5" stroke-linecap="round" stroke-linejoin="round"/>
<path d="M41.1151 100.864V112.5H39.706V100.864H41.1151ZM45.0994 107.25V112.5H43.7585V103.773H45.054V105.136H45.1676C45.3722 104.693 45.6828 104.337 46.0994 104.068C46.5161 103.795 47.054 103.659 47.7131 103.659C48.304 103.659 48.821 103.78 49.2642 104.023C49.7074 104.261 50.0521 104.625 50.2983 105.114C50.5445 105.598 50.6676 106.212 50.6676 106.955V112.5H49.3267V107.045C49.3267 106.36 49.1487 105.826 48.7926 105.443C48.4366 105.057 47.9479 104.864 47.3267 104.864C46.8987 104.864 46.5161 104.956 46.179 105.142C45.8456 105.328 45.5824 105.598 45.3892 105.955C45.196 106.311 45.0994 106.742 45.0994 107.25ZM59.2997 105.727L58.0952 106.068C58.0194 105.867 57.9077 105.672 57.7599 105.483C57.616 105.29 57.419 105.131 57.169 105.006C56.919 104.881 56.599 104.818 56.2088 104.818C55.6747 104.818 55.2296 104.941 54.8736 105.188C54.5213 105.43 54.3452 105.739 54.3452 106.114C54.3452 106.447 54.4664 106.71 54.7088 106.903C54.9512 107.097 55.33 107.258 55.8452 107.386L57.1406 107.705C57.9209 107.894 58.5024 108.184 58.8849 108.574C59.2675 108.96 59.4588 109.458 59.4588 110.068C59.4588 110.568 59.3149 111.015 59.027 111.409C58.7429 111.803 58.3452 112.114 57.8338 112.341C57.3224 112.568 56.7277 112.682 56.0497 112.682C55.1596 112.682 54.4228 112.489 53.8395 112.102C53.2562 111.716 52.8868 111.152 52.7315 110.409L54.0043 110.091C54.1255 110.561 54.3546 110.913 54.6918 111.148C55.0327 111.383 55.4777 111.5 56.027 111.5C56.652 111.5 57.1482 111.367 57.5156 111.102C57.8868 110.833 58.0724 110.511 58.0724 110.136C58.0724 109.833 57.9664 109.58 57.7543 109.375C57.5421 109.167 57.2164 109.011 56.777 108.909L55.3224 108.568C54.5232 108.379 53.9361 108.085 53.5611 107.688C53.1899 107.286 53.0043 106.784 53.0043 106.182C53.0043 105.689 53.1425 105.254 53.419 104.875C53.6993 104.496 54.08 104.199 54.5611 103.983C55.0459 103.767 55.5952 103.659 56.2088 103.659C57.0724 103.659 57.7505 103.848 58.2429 104.227C58.7391 104.606 59.0914 105.106 59.2997 105.727ZM65.2727 103.773V104.909H60.75V103.773H65.2727ZM62.0682 101.682H63.4091V110C63.4091 110.379 63.464 110.663 63.5739 110.852C63.6875 111.038 63.8314 111.163 64.0057 111.227C64.1837 111.288 64.3712 111.318 64.5682 111.318C64.7159 111.318 64.8371 111.311 64.9318 111.295C65.0265 111.277 65.1023 111.261 65.1591 111.25L65.4318 112.455C65.3409 112.489 65.214 112.523 65.0511 112.557C64.8883 112.595 64.6818 112.614 64.4318 112.614C64.053 112.614 63.6818 112.532 63.3182 112.369C62.9583 112.206 62.6591 111.958 62.4205 111.625C62.1856 111.292 62.0682 110.871 62.0682 110.364V101.682ZM69.858 112.705C69.3049 112.705 68.803 112.6 68.3523 112.392C67.9015 112.18 67.5436 111.875 67.2784 111.477C67.0133 111.076 66.8807 110.591 66.8807 110.023C66.8807 109.523 66.9792 109.117 67.1761 108.807C67.3731 108.492 67.6364 108.246 67.9659 108.068C68.2955 107.89 68.6591 107.758 69.0568 107.67C69.4583 107.58 69.8617 107.508 70.267 107.455C70.7973 107.386 71.2273 107.335 71.5568 107.301C71.8902 107.263 72.1326 107.201 72.2841 107.114C72.4394 107.027 72.517 106.875 72.517 106.659V106.614C72.517 106.053 72.3636 105.617 72.0568 105.307C71.7538 104.996 71.2936 104.841 70.6761 104.841C70.036 104.841 69.5341 104.981 69.1705 105.261C68.8068 105.542 68.5511 105.841 68.4034 106.159L67.1307 105.705C67.358 105.174 67.661 104.761 68.0398 104.466C68.4223 104.167 68.839 103.958 69.2898 103.841C69.7443 103.72 70.1913 103.659 70.6307 103.659C70.911 103.659 71.233 103.693 71.5966 103.761C71.964 103.826 72.3182 103.96 72.6591 104.165C73.0038 104.369 73.2898 104.678 73.517 105.091C73.7443 105.504 73.858 106.057 73.858 106.75V112.5H72.517V111.318H72.4489C72.358 111.508 72.2064 111.71 71.9943 111.926C71.7822 112.142 71.5 112.326 71.1477 112.477C70.7955 112.629 70.3655 112.705 69.858 112.705ZM70.0625 111.5C70.5928 111.5 71.0398 111.396 71.4034 111.188C71.7708 110.979 72.0473 110.71 72.233 110.381C72.4223 110.051 72.517 109.705 72.517 109.341V108.114C72.4602 108.182 72.3352 108.244 72.142 108.301C71.9527 108.354 71.733 108.402 71.483 108.443C71.2367 108.481 70.9962 108.515 70.7614 108.545C70.5303 108.572 70.3428 108.595 70.1989 108.614C69.8504 108.659 69.5246 108.733 69.2216 108.835C68.9223 108.934 68.6799 109.083 68.4943 109.284C68.3125 109.481 68.2216 109.75 68.2216 110.091C68.2216 110.557 68.3939 110.909 68.7386 111.148C69.0871 111.383 69.5284 111.5 70.0625 111.5ZM77.6463 107.25V112.5H76.3054V103.773H77.6009V105.136H77.7145C77.919 104.693 78.2296 104.337 78.6463 104.068C79.063 103.795 79.6009 103.659 80.2599 103.659C80.8509 103.659 81.3679 103.78 81.8111 104.023C82.2543 104.261 82.599 104.625 82.8452 105.114C83.0914 105.598 83.2145 106.212 83.2145 106.955V112.5H81.8736V107.045C81.8736 106.36 81.6955 105.826 81.3395 105.443C80.9834 105.057 80.4948 104.864 79.8736 104.864C79.4455 104.864 79.063 104.956 78.7259 105.142C78.3925 105.328 78.1293 105.598 77.9361 105.955C77.7429 106.311 77.6463 106.742 77.6463 107.25ZM89.4602 103.773V104.909H84.9375V103.773H89.4602ZM86.2557 101.682H87.5966V110C87.5966 110.379 87.6515 110.663 87.7614 110.852C87.875 111.038 88.0189 111.163 88.1932 111.227C88.3712 111.288 88.5587 111.318 88.7557 111.318C88.9034 111.318 89.0246 111.311 89.1193 111.295C89.214 111.277 89.2898 111.261 89.3466 111.25L89.6193 112.455C89.5284 112.489 89.4015 112.523 89.2386 112.557C89.0758 112.595 88.8693 112.614 88.6193 112.614C88.2405 112.614 87.8693 112.532 87.5057 112.369C87.1458 112.206 86.8466 111.958 86.608 111.625C86.3731 111.292 86.2557 110.871 86.2557 110.364V101.682ZM96.1591 112.5V100.864H97.5V105.159H97.6136C97.7121 105.008 97.8485 104.814 98.0227 104.58C98.2008 104.341 98.4545 104.129 98.7841 103.943C99.1174 103.754 99.5682 103.659 100.136 103.659C100.871 103.659 101.519 103.843 102.08 104.21C102.64 104.578 103.078 105.098 103.392 105.773C103.706 106.447 103.864 107.242 103.864 108.159C103.864 109.083 103.706 109.884 103.392 110.562C103.078 111.237 102.642 111.759 102.085 112.131C101.528 112.498 100.886 112.682 100.159 112.682C99.5985 112.682 99.1496 112.589 98.8125 112.403C98.4754 112.214 98.2159 112 98.0341 111.761C97.8523 111.519 97.7121 111.318 97.6136 111.159H97.4545V112.5H96.1591ZM97.4773 108.136C97.4773 108.795 97.5739 109.377 97.767 109.881C97.9602 110.381 98.2424 110.773 98.6136 111.057C98.9848 111.337 99.4394 111.477 99.9773 111.477C100.538 111.477 101.006 111.33 101.381 111.034C101.759 110.735 102.044 110.333 102.233 109.83C102.426 109.322 102.523 108.758 102.523 108.136C102.523 107.523 102.428 106.97 102.239 106.477C102.053 105.981 101.771 105.589 101.392 105.301C101.017 105.009 100.545 104.864 99.9773 104.864C99.4318 104.864 98.9735 105.002 98.6023 105.278C98.2311 105.551 97.9508 105.934 97.7614 106.426C97.572 106.915 97.4773 107.485 97.4773 108.136ZM111.415 108.932V103.773H112.756V112.5H111.415V111.023H111.324C111.119 111.466 110.801 111.843 110.369 112.153C109.938 112.46 109.392 112.614 108.733 112.614C108.188 112.614 107.703 112.494 107.278 112.256C106.854 112.013 106.521 111.65 106.278 111.165C106.036 110.676 105.915 110.061 105.915 109.318V103.773H107.256V109.227C107.256 109.864 107.434 110.371 107.79 110.75C108.15 111.129 108.608 111.318 109.165 111.318C109.498 111.318 109.837 111.233 110.182 111.062C110.53 110.892 110.822 110.631 111.057 110.278C111.295 109.926 111.415 109.477 111.415 108.932ZM116.075 115.773C115.848 115.773 115.645 115.754 115.467 115.716C115.289 115.682 115.166 115.648 115.098 115.614L115.439 114.432C115.765 114.515 116.053 114.545 116.303 114.523C116.553 114.5 116.774 114.388 116.967 114.188C117.164 113.991 117.344 113.67 117.507 113.227L117.757 112.545L114.53 103.773H115.984L118.393 110.727H118.484L120.893 103.773H122.348L118.643 113.773C118.477 114.223 118.27 114.597 118.024 114.892C117.778 115.191 117.492 115.413 117.166 115.557C116.844 115.701 116.481 115.773 116.075 115.773ZM131.186 112.705C130.633 112.705 130.131 112.6 129.68 112.392C129.23 112.18 128.872 111.875 128.607 111.477C128.341 111.076 128.209 110.591 128.209 110.023C128.209 109.523 128.307 109.117 128.504 108.807C128.701 108.492 128.964 108.246 129.294 108.068C129.624 107.89 129.987 107.758 130.385 107.67C130.786 107.58 131.19 107.508 131.595 107.455C132.125 107.386 132.555 107.335 132.885 107.301C133.218 107.263 133.461 107.201 133.612 107.114C133.768 107.027 133.845 106.875 133.845 106.659V106.614C133.845 106.053 133.692 105.617 133.385 105.307C133.082 104.996 132.622 104.841 132.004 104.841C131.364 104.841 130.862 104.981 130.499 105.261C130.135 105.542 129.879 105.841 129.732 106.159L128.459 105.705C128.686 105.174 128.989 104.761 129.368 104.466C129.75 104.167 130.167 103.958 130.618 103.841C131.072 103.72 131.519 103.659 131.959 103.659C132.239 103.659 132.561 103.693 132.925 103.761C133.292 103.826 133.646 103.96 133.987 104.165C134.332 104.369 134.618 104.678 134.845 105.091C135.072 105.504 135.186 106.057 135.186 106.75V112.5H133.845V111.318H133.777C133.686 111.508 133.535 111.71 133.322 111.926C133.11 112.142 132.828 112.326 132.476 112.477C132.124 112.629 131.694 112.705 131.186 112.705ZM131.391 111.5C131.921 111.5 132.368 111.396 132.732 111.188C133.099 110.979 133.375 110.71 133.561 110.381C133.75 110.051 133.845 109.705 133.845 109.341V108.114C133.788 108.182 133.663 108.244 133.47 108.301C133.281 108.354 133.061 108.402 132.811 108.443C132.565 108.481 132.324 108.515 132.089 108.545C131.858 108.572 131.671 108.595 131.527 108.614C131.179 108.659 130.853 108.733 130.55 108.835C130.25 108.934 130.008 109.083 129.822 109.284C129.641 109.481 129.55 109.75 129.55 110.091C129.55 110.557 129.722 110.909 130.067 111.148C130.415 111.383 130.857 111.5 131.391 111.5ZM138.974 107.25V112.5H137.634V103.773H138.929V105.136H139.043C139.247 104.693 139.558 104.337 139.974 104.068C140.391 103.795 140.929 103.659 141.588 103.659C142.179 103.659 142.696 103.78 143.139 104.023C143.582 104.261 143.927 104.625 144.173 105.114C144.42 105.598 144.543 106.212 144.543 106.955V112.5H143.202V107.045C143.202 106.36 143.024 105.826 142.668 105.443C142.312 105.057 141.823 104.864 141.202 104.864C140.774 104.864 140.391 104.956 140.054 105.142C139.721 105.328 139.457 105.598 139.264 105.955C139.071 106.311 138.974 106.742 138.974 107.25ZM150.288 112.682C149.561 112.682 148.919 112.498 148.362 112.131C147.805 111.759 147.37 111.237 147.055 110.562C146.741 109.884 146.584 109.083 146.584 108.159C146.584 107.242 146.741 106.447 147.055 105.773C147.37 105.098 147.807 104.578 148.368 104.21C148.929 103.843 149.576 103.659 150.311 103.659C150.879 103.659 151.328 103.754 151.658 103.943C151.991 104.129 152.245 104.341 152.419 104.58C152.597 104.814 152.735 105.008 152.834 105.159H152.947V100.864H154.288V112.5H152.993V111.159H152.834C152.735 111.318 152.595 111.519 152.413 111.761C152.232 112 151.972 112.214 151.635 112.403C151.298 112.589 150.849 112.682 150.288 112.682ZM150.47 111.477C151.008 111.477 151.463 111.337 151.834 111.057C152.205 110.773 152.487 110.381 152.68 109.881C152.874 109.377 152.97 108.795 152.97 108.136C152.97 107.485 152.875 106.915 152.686 106.426C152.497 105.934 152.216 105.551 151.845 105.278C151.474 105.002 151.016 104.864 150.47 104.864C149.902 104.864 149.429 105.009 149.05 105.301C148.675 105.589 148.393 105.981 148.203 106.477C148.018 106.97 147.925 107.523 147.925 108.136C147.925 108.758 148.019 109.322 148.209 109.83C148.402 110.333 148.686 110.735 149.061 111.034C149.44 111.33 149.91 111.477 150.47 111.477ZM166.93 108.932V103.773H168.271V112.5H166.93V111.023H166.839C166.635 111.466 166.317 111.843 165.885 112.153C165.453 112.46 164.908 112.614 164.249 112.614C163.703 112.614 163.218 112.494 162.794 112.256C162.37 112.013 162.036 111.65 161.794 111.165C161.552 110.676 161.43 110.061 161.43 109.318V103.773H162.771V109.227C162.771 109.864 162.949 110.371 163.305 110.75C163.665 111.129 164.124 111.318 164.68 111.318C165.014 111.318 165.353 111.233 165.697 111.062C166.046 110.892 166.338 110.631 166.572 110.278C166.811 109.926 166.93 109.477 166.93 108.932ZM172.068 107.25V112.5H170.727V103.773H172.023V105.136H172.136C172.341 104.693 172.652 104.337 173.068 104.068C173.485 103.795 174.023 103.659 174.682 103.659C175.273 103.659 175.79 103.78 176.233 104.023C176.676 104.261 177.021 104.625 177.267 105.114C177.513 105.598 177.636 106.212 177.636 106.955V112.5H176.295V107.045C176.295 106.36 176.117 105.826 175.761 105.443C175.405 105.057 174.917 104.864 174.295 104.864C173.867 104.864 173.485 104.956 173.148 105.142C172.814 105.328 172.551 105.598 172.358 105.955C172.165 106.311 172.068 106.742 172.068 107.25ZM186.268 105.727L185.064 106.068C184.988 105.867 184.876 105.672 184.729 105.483C184.585 105.29 184.388 105.131 184.138 105.006C183.888 104.881 183.568 104.818 183.178 104.818C182.643 104.818 182.198 104.941 181.842 105.188C181.49 105.43 181.314 105.739 181.314 106.114C181.314 106.447 181.435 106.71 181.678 106.903C181.92 107.097 182.299 107.258 182.814 107.386L184.109 107.705C184.89 107.894 185.471 108.184 185.854 108.574C186.236 108.96 186.428 109.458 186.428 110.068C186.428 110.568 186.284 111.015 185.996 111.409C185.712 111.803 185.314 112.114 184.803 112.341C184.291 112.568 183.696 112.682 183.018 112.682C182.128 112.682 181.392 112.489 180.808 112.102C180.225 111.716 179.856 111.152 179.7 110.409L180.973 110.091C181.094 110.561 181.323 110.913 181.661 111.148C182.001 111.383 182.446 111.5 182.996 111.5C183.621 111.5 184.117 111.367 184.484 111.102C184.856 110.833 185.041 110.511 185.041 110.136C185.041 109.833 184.935 109.58 184.723 109.375C184.511 109.167 184.185 109.011 183.746 108.909L182.291 108.568C181.492 108.379 180.905 108.085 180.53 107.688C180.159 107.286 179.973 106.784 179.973 106.182C179.973 105.689 180.111 105.254 180.388 104.875C180.668 104.496 181.049 104.199 181.53 103.983C182.015 103.767 182.564 103.659 183.178 103.659C184.041 103.659 184.719 103.848 185.212 104.227C185.708 104.606 186.06 105.106 186.268 105.727ZM192.241 103.773V104.909H187.719V103.773H192.241ZM189.037 101.682H190.378V110C190.378 110.379 190.433 110.663 190.543 110.852C190.656 111.038 190.8 111.163 190.974 111.227C191.152 111.288 191.34 111.318 191.537 111.318C191.685 111.318 191.806 111.311 191.901 111.295C191.995 111.277 192.071 111.261 192.128 111.25L192.401 112.455C192.31 112.489 192.183 112.523 192.02 112.557C191.857 112.595 191.651 112.614 191.401 112.614C191.022 112.614 190.651 112.532 190.287 112.369C189.927 112.206 189.628 111.958 189.389 111.625C189.154 111.292 189.037 110.871 189.037 110.364V101.682ZM196.827 112.705C196.274 112.705 195.772 112.6 195.321 112.392C194.87 112.18 194.512 111.875 194.247 111.477C193.982 111.076 193.849 110.591 193.849 110.023C193.849 109.523 193.948 109.117 194.145 108.807C194.342 108.492 194.605 108.246 194.935 108.068C195.264 107.89 195.628 107.758 196.026 107.67C196.427 107.58 196.83 107.508 197.236 107.455C197.766 107.386 198.196 107.335 198.526 107.301C198.859 107.263 199.101 107.201 199.253 107.114C199.408 107.027 199.486 106.875 199.486 106.659V106.614C199.486 106.053 199.332 105.617 199.026 105.307C198.723 104.996 198.262 104.841 197.645 104.841C197.005 104.841 196.503 104.981 196.139 105.261C195.776 105.542 195.52 105.841 195.372 106.159L194.099 105.705C194.327 105.174 194.63 104.761 195.009 104.466C195.391 104.167 195.808 103.958 196.259 103.841C196.713 103.72 197.16 103.659 197.599 103.659C197.88 103.659 198.202 103.693 198.565 103.761C198.933 103.826 199.287 103.96 199.628 104.165C199.973 104.369 200.259 104.678 200.486 105.091C200.713 105.504 200.827 106.057 200.827 106.75V112.5H199.486V111.318H199.418C199.327 111.508 199.175 111.71 198.963 111.926C198.751 112.142 198.469 112.326 198.116 112.477C197.764 112.629 197.334 112.705 196.827 112.705ZM197.031 111.5C197.562 111.5 198.009 111.396 198.372 111.188C198.74 110.979 199.016 110.71 199.202 110.381C199.391 110.051 199.486 109.705 199.486 109.341V108.114C199.429 108.182 199.304 108.244 199.111 108.301C198.921 108.354 198.702 108.402 198.452 108.443C198.205 108.481 197.965 108.515 197.73 108.545C197.499 108.572 197.312 108.595 197.168 108.614C196.819 108.659 196.493 108.733 196.19 108.835C195.891 108.934 195.649 109.083 195.463 109.284C195.281 109.481 195.19 109.75 195.19 110.091C195.19 110.557 195.363 110.909 195.707 111.148C196.056 111.383 196.497 111.5 197.031 111.5ZM204.524 109.318L204.501 107.659H204.774L208.592 103.773H210.251L206.183 107.886H206.07L204.524 109.318ZM203.274 112.5V100.864H204.615V112.5H203.274ZM208.82 112.5L205.411 108.182L206.365 107.25L210.524 112.5H208.82ZM215.277 112.682C214.436 112.682 213.711 112.496 213.101 112.125C212.495 111.75 212.027 111.227 211.697 110.557C211.372 109.883 211.209 109.098 211.209 108.205C211.209 107.311 211.372 106.523 211.697 105.841C212.027 105.155 212.485 104.621 213.072 104.239C213.663 103.852 214.353 103.659 215.141 103.659C215.595 103.659 216.044 103.735 216.487 103.886C216.93 104.038 217.334 104.284 217.697 104.625C218.061 104.962 218.351 105.409 218.567 105.966C218.783 106.523 218.891 107.208 218.891 108.023V108.591H212.163V107.432H217.527C217.527 106.939 217.429 106.5 217.232 106.114C217.038 105.727 216.762 105.422 216.402 105.199C216.046 104.975 215.625 104.864 215.141 104.864C214.607 104.864 214.144 104.996 213.754 105.261C213.368 105.523 213.071 105.864 212.862 106.284C212.654 106.705 212.55 107.155 212.55 107.636V108.409C212.55 109.068 212.663 109.627 212.891 110.085C213.122 110.54 213.442 110.886 213.851 111.125C214.26 111.36 214.735 111.477 215.277 111.477C215.629 111.477 215.947 111.428 216.232 111.33C216.519 111.227 216.768 111.076 216.976 110.875C217.184 110.67 217.345 110.417 217.459 110.114L218.754 110.477C218.618 110.917 218.389 111.303 218.067 111.636C217.745 111.966 217.347 112.223 216.874 112.409C216.4 112.591 215.868 112.682 215.277 112.682Z" fill="black"/>
<circle cx="15" cy="153" r="15" fill="black"/>
<path d="M9 154.24L13.8 158.08L21 148" stroke="#013CFF" stroke-width="2.5" stroke-linecap="round" stroke-linejoin="round"/>
<path d="M49.5945 152.682C49.5945 153.909 49.3729 154.97 48.9297 155.864C48.4865 156.758 47.8786 157.447 47.1058 157.932C46.3331 158.417 45.4505 158.659 44.4581 158.659C43.4657 158.659 42.5831 158.417 41.8104 157.932C41.0376 157.447 40.4297 156.758 39.9865 155.864C39.5433 154.97 39.3217 153.909 39.3217 152.682C39.3217 151.455 39.5433 150.394 39.9865 149.5C40.4297 148.606 41.0376 147.917 41.8104 147.432C42.5831 146.947 43.4657 146.705 44.4581 146.705C45.4505 146.705 46.3331 146.947 47.1058 147.432C47.8786 147.917 48.4865 148.606 48.9297 149.5C49.3729 150.394 49.5945 151.455 49.5945 152.682ZM48.2308 152.682C48.2308 151.674 48.0623 150.824 47.7251 150.131C47.3918 149.438 46.9392 148.913 46.3672 148.557C45.799 148.201 45.1626 148.023 44.4581 148.023C43.7536 148.023 43.1153 148.201 42.5433 148.557C41.9751 148.913 41.5225 149.438 41.1854 150.131C40.852 150.824 40.6854 151.674 40.6854 152.682C40.6854 153.689 40.852 154.54 41.1854 155.233C41.5225 155.926 41.9751 156.451 42.5433 156.807C43.1153 157.163 43.7536 157.341 44.4581 157.341C45.1626 157.341 45.799 157.163 46.3672 156.807C46.9392 156.451 47.3918 155.926 47.7251 155.233C48.0623 154.54 48.2308 153.689 48.2308 152.682ZM51.782 161.773V149.773H53.0774V151.159H53.2365C53.335 151.008 53.4714 150.814 53.6456 150.58C53.8236 150.341 54.0774 150.129 54.407 149.943C54.7403 149.754 55.1911 149.659 55.7592 149.659C56.4941 149.659 57.1418 149.843 57.7024 150.21C58.263 150.578 58.7005 151.098 59.0149 151.773C59.3293 152.447 59.4865 153.242 59.4865 154.159C59.4865 155.083 59.3293 155.884 59.0149 156.562C58.7005 157.237 58.2649 157.759 57.7081 158.131C57.1513 158.498 56.5092 158.682 55.782 158.682C55.2214 158.682 54.7725 158.589 54.4354 158.403C54.0982 158.214 53.8388 158 53.657 157.761C53.4751 157.519 53.335 157.318 53.2365 157.159H53.1229V161.773H51.782ZM53.1001 154.136C53.1001 154.795 53.1967 155.377 53.3899 155.881C53.5831 156.381 53.8653 156.773 54.2365 157.057C54.6077 157.337 55.0623 157.477 55.6001 157.477C56.1607 157.477 56.6286 157.33 57.0036 157.034C57.3823 156.735 57.6664 156.333 57.8558 155.83C58.049 155.322 58.1456 154.758 58.1456 154.136C58.1456 153.523 58.0509 152.97 57.8615 152.477C57.6759 151.981 57.3937 151.589 57.0149 151.301C56.6399 151.009 56.1683 150.864 55.6001 150.864C55.0547 150.864 54.5964 151.002 54.2251 151.278C53.8539 151.551 53.5736 151.934 53.3842 152.426C53.1948 152.915 53.1001 153.485 53.1001 154.136ZM65.3274 149.773V150.909H60.8047V149.773H65.3274ZM62.1229 147.682H63.4638V156C63.4638 156.379 63.5187 156.663 63.6286 156.852C63.7422 157.038 63.8861 157.163 64.0604 157.227C64.2384 157.288 64.4259 157.318 64.6229 157.318C64.7706 157.318 64.8918 157.311 64.9865 157.295C65.0812 157.277 65.157 157.261 65.2138 157.25L65.4865 158.455C65.3956 158.489 65.2687 158.523 65.1058 158.557C64.9429 158.595 64.7365 158.614 64.4865 158.614C64.1077 158.614 63.7365 158.532 63.3729 158.369C63.013 158.206 62.7138 157.958 62.4751 157.625C62.2403 157.292 62.1229 156.871 62.1229 156.364V147.682ZM67.3445 158.5V149.773H68.6854V158.5H67.3445ZM68.0263 148.318C67.7649 148.318 67.5395 148.229 67.3501 148.051C67.1645 147.873 67.0717 147.659 67.0717 147.409C67.0717 147.159 67.1645 146.945 67.3501 146.767C67.5395 146.589 67.7649 146.5 68.0263 146.5C68.2876 146.5 68.5111 146.589 68.6967 146.767C68.8861 146.945 68.9808 147.159 68.9808 147.409C68.9808 147.659 68.8861 147.873 68.6967 148.051C68.5111 148.229 68.2876 148.318 68.0263 148.318ZM71.1413 158.5V149.773H72.4368V151.136H72.5504C72.7322 150.67 73.0258 150.309 73.4311 150.051C73.8364 149.79 74.3232 149.659 74.8913 149.659C75.4671 149.659 75.9463 149.79 76.3288 150.051C76.7152 150.309 77.0163 150.67 77.2322 151.136H77.3232C77.5466 150.686 77.8819 150.328 78.3288 150.062C78.7758 149.794 79.3118 149.659 79.9368 149.659C80.7171 149.659 81.3554 149.903 81.8516 150.392C82.3478 150.877 82.5959 151.633 82.5959 152.659V158.5H81.255V152.659C81.255 152.015 81.0788 151.555 80.7266 151.278C80.3743 151.002 79.9595 150.864 79.4822 150.864C78.8686 150.864 78.3932 151.049 78.0561 151.42C77.719 151.788 77.5504 152.254 77.5504 152.818V158.5H76.1868V152.523C76.1868 152.027 76.0258 151.627 75.7038 151.324C75.3819 151.017 74.9671 150.864 74.4595 150.864C74.111 150.864 73.7853 150.956 73.4822 151.142C73.183 151.328 72.9406 151.585 72.755 151.915C72.5732 152.241 72.4822 152.617 72.4822 153.045V158.5H71.1413ZM85.0476 158.5V149.773H86.3885V158.5H85.0476ZM85.7294 148.318C85.468 148.318 85.2427 148.229 85.0533 148.051C84.8677 147.873 84.7749 147.659 84.7749 147.409C84.7749 147.159 84.8677 146.945 85.0533 146.767C85.2427 146.589 85.468 146.5 85.7294 146.5C85.9908 146.5 86.2143 146.589 86.3999 146.767C86.5893 146.945 86.6839 147.159 86.6839 147.409C86.6839 147.659 86.5893 147.873 86.3999 148.051C86.2143 148.229 85.9908 148.318 85.7294 148.318ZM95.0263 151.727L93.8217 152.068C93.746 151.867 93.6342 151.672 93.4865 151.483C93.3426 151.29 93.1456 151.131 92.8956 151.006C92.6456 150.881 92.3255 150.818 91.9354 150.818C91.4013 150.818 90.9562 150.941 90.6001 151.188C90.2479 151.43 90.0717 151.739 90.0717 152.114C90.0717 152.447 90.1929 152.71 90.4354 152.903C90.6778 153.097 91.0566 153.258 91.5717 153.386L92.8672 153.705C93.6475 153.894 94.2289 154.184 94.6115 154.574C94.9941 154.96 95.1854 155.458 95.1854 156.068C95.1854 156.568 95.0414 157.015 94.7536 157.409C94.4695 157.803 94.0717 158.114 93.5604 158.341C93.049 158.568 92.4543 158.682 91.7763 158.682C90.8861 158.682 90.1494 158.489 89.5661 158.102C88.9827 157.716 88.6134 157.152 88.4581 156.409L89.7308 156.091C89.852 156.561 90.0812 156.913 90.4183 157.148C90.7592 157.383 91.2043 157.5 91.7536 157.5C92.3786 157.5 92.8748 157.367 93.2422 157.102C93.6134 156.833 93.799 156.511 93.799 156.136C93.799 155.833 93.6929 155.58 93.4808 155.375C93.2687 155.167 92.9429 155.011 92.5036 154.909L91.049 154.568C90.2498 154.379 89.6626 154.085 89.2876 153.688C88.9164 153.286 88.7308 152.784 88.7308 152.182C88.7308 151.689 88.8691 151.254 89.1456 150.875C89.4259 150.496 89.8066 150.199 90.2876 149.983C90.7725 149.767 91.3217 149.659 91.9354 149.659C92.799 149.659 93.477 149.848 93.9695 150.227C94.4657 150.606 94.8179 151.106 95.0263 151.727ZM100.863 158.682C100.022 158.682 99.2966 158.496 98.6868 158.125C98.0807 157.75 97.6129 157.227 97.2834 156.557C96.9576 155.883 96.7947 155.098 96.7947 154.205C96.7947 153.311 96.9576 152.523 97.2834 151.841C97.6129 151.155 98.0713 150.621 98.6584 150.239C99.2493 149.852 99.9387 149.659 100.727 149.659C101.181 149.659 101.63 149.735 102.073 149.886C102.516 150.038 102.92 150.284 103.283 150.625C103.647 150.962 103.937 151.409 104.153 151.966C104.369 152.523 104.477 153.208 104.477 154.023V154.591H97.7493V153.432H103.113C103.113 152.939 103.014 152.5 102.817 152.114C102.624 151.727 102.348 151.422 101.988 151.199C101.632 150.975 101.211 150.864 100.727 150.864C100.192 150.864 99.7304 150.996 99.3402 151.261C98.9538 151.523 98.6565 151.864 98.4482 152.284C98.2398 152.705 98.1357 153.155 98.1357 153.636V154.409C98.1357 155.068 98.2493 155.627 98.4766 156.085C98.7076 156.54 99.0277 156.886 99.4368 157.125C99.8459 157.36 100.321 157.477 100.863 157.477C101.215 157.477 101.533 157.428 101.817 157.33C102.105 157.227 102.353 157.076 102.562 156.875C102.77 156.67 102.931 156.417 103.045 156.114L104.34 156.477C104.204 156.917 103.975 157.303 103.653 157.636C103.331 157.966 102.933 158.223 102.46 158.409C101.986 158.591 101.454 158.682 100.863 158.682ZM114.903 149.773V150.909H110.198V149.773H114.903ZM111.607 158.5V148.568C111.607 148.068 111.725 147.652 111.96 147.318C112.194 146.985 112.499 146.735 112.874 146.568C113.249 146.402 113.645 146.318 114.062 146.318C114.391 146.318 114.66 146.345 114.869 146.398C115.077 146.451 115.232 146.5 115.335 146.545L114.948 147.705C114.88 147.682 114.785 147.653 114.664 147.619C114.547 147.585 114.391 147.568 114.198 147.568C113.755 147.568 113.435 147.68 113.238 147.903C113.045 148.127 112.948 148.455 112.948 148.886V158.5H111.607ZM119.968 158.682C119.18 158.682 118.489 158.494 117.894 158.119C117.303 157.744 116.841 157.22 116.508 156.545C116.178 155.871 116.013 155.083 116.013 154.182C116.013 153.273 116.178 152.479 116.508 151.801C116.841 151.123 117.303 150.597 117.894 150.222C118.489 149.847 119.18 149.659 119.968 149.659C120.756 149.659 121.445 149.847 122.036 150.222C122.631 150.597 123.093 151.123 123.423 151.801C123.756 152.479 123.923 153.273 123.923 154.182C123.923 155.083 123.756 155.871 123.423 156.545C123.093 157.22 122.631 157.744 122.036 158.119C121.445 158.494 120.756 158.682 119.968 158.682ZM119.968 157.477C120.567 157.477 121.059 157.324 121.445 157.017C121.832 156.71 122.118 156.307 122.303 155.807C122.489 155.307 122.582 154.765 122.582 154.182C122.582 153.598 122.489 153.055 122.303 152.551C122.118 152.047 121.832 151.64 121.445 151.33C121.059 151.019 120.567 150.864 119.968 150.864C119.37 150.864 118.877 151.019 118.491 151.33C118.104 151.64 117.818 152.047 117.633 152.551C117.447 153.055 117.354 153.598 117.354 154.182C117.354 154.765 117.447 155.307 117.633 155.807C117.818 156.307 118.104 156.71 118.491 157.017C118.877 157.324 119.37 157.477 119.968 157.477ZM125.969 158.5V149.773H127.265V151.091H127.356C127.515 150.659 127.803 150.309 128.219 150.04C128.636 149.771 129.106 149.636 129.629 149.636C129.727 149.636 129.85 149.638 129.998 149.642C130.146 149.646 130.257 149.652 130.333 149.659V151.023C130.288 151.011 130.183 150.994 130.021 150.972C129.862 150.945 129.693 150.932 129.515 150.932C129.091 150.932 128.712 151.021 128.379 151.199C128.049 151.373 127.788 151.616 127.594 151.926C127.405 152.233 127.31 152.583 127.31 152.977V158.5H125.969ZM136.604 158.5V146.864H137.945V151.159H138.059C138.157 151.008 138.294 150.814 138.468 150.58C138.646 150.341 138.9 150.129 139.229 149.943C139.563 149.754 140.013 149.659 140.582 149.659C141.317 149.659 141.964 149.843 142.525 150.21C143.085 150.578 143.523 151.098 143.837 151.773C144.152 152.447 144.309 153.242 144.309 154.159C144.309 155.083 144.152 155.884 143.837 156.562C143.523 157.237 143.087 157.759 142.531 158.131C141.974 158.498 141.332 158.682 140.604 158.682C140.044 158.682 139.595 158.589 139.258 158.403C138.921 158.214 138.661 158 138.479 157.761C138.298 157.519 138.157 157.318 138.059 157.159H137.9V158.5H136.604ZM137.923 154.136C137.923 154.795 138.019 155.377 138.212 155.881C138.406 156.381 138.688 156.773 139.059 157.057C139.43 157.337 139.885 157.477 140.423 157.477C140.983 157.477 141.451 157.33 141.826 157.034C142.205 156.735 142.489 156.333 142.678 155.83C142.871 155.322 142.968 154.758 142.968 154.136C142.968 153.523 142.873 152.97 142.684 152.477C142.498 151.981 142.216 151.589 141.837 151.301C141.462 151.009 140.991 150.864 140.423 150.864C139.877 150.864 139.419 151.002 139.048 151.278C138.676 151.551 138.396 151.934 138.207 152.426C138.017 152.915 137.923 153.485 137.923 154.136ZM150.019 158.682C149.178 158.682 148.453 158.496 147.843 158.125C147.237 157.75 146.769 157.227 146.44 156.557C146.114 155.883 145.951 155.098 145.951 154.205C145.951 153.311 146.114 152.523 146.44 151.841C146.769 151.155 147.228 150.621 147.815 150.239C148.406 149.852 149.095 149.659 149.883 149.659C150.337 149.659 150.786 149.735 151.229 149.886C151.673 150.038 152.076 150.284 152.44 150.625C152.803 150.962 153.093 151.409 153.309 151.966C153.525 152.523 153.633 153.208 153.633 154.023V154.591H146.906V153.432H152.269C152.269 152.939 152.171 152.5 151.974 152.114C151.781 151.727 151.504 151.422 151.144 151.199C150.788 150.975 150.368 150.864 149.883 150.864C149.349 150.864 148.887 150.996 148.496 151.261C148.11 151.523 147.813 151.864 147.604 152.284C147.396 152.705 147.292 153.155 147.292 153.636V154.409C147.292 155.068 147.406 155.627 147.633 156.085C147.864 156.54 148.184 156.886 148.593 157.125C149.002 157.36 149.478 157.477 150.019 157.477C150.371 157.477 150.69 157.428 150.974 157.33C151.262 157.227 151.51 157.076 151.718 156.875C151.926 156.67 152.087 156.417 152.201 156.114L153.496 156.477C153.36 156.917 153.131 157.303 152.809 157.636C152.487 157.966 152.089 158.223 151.616 158.409C151.142 158.591 150.61 158.682 150.019 158.682ZM159.468 149.773V150.909H154.945V149.773H159.468ZM156.263 147.682H157.604V156C157.604 156.379 157.659 156.663 157.769 156.852C157.883 157.038 158.027 157.163 158.201 157.227C158.379 157.288 158.567 157.318 158.763 157.318C158.911 157.318 159.032 157.311 159.127 157.295C159.222 157.277 159.298 157.261 159.354 157.25L159.627 158.455C159.536 158.489 159.409 158.523 159.246 158.557C159.084 158.595 158.877 158.614 158.627 158.614C158.248 158.614 157.877 158.532 157.513 158.369C157.154 158.206 156.854 157.958 156.616 157.625C156.381 157.292 156.263 156.871 156.263 156.364V147.682ZM165.281 149.773V150.909H160.758V149.773H165.281ZM162.076 147.682H163.417V156C163.417 156.379 163.472 156.663 163.582 156.852C163.695 157.038 163.839 157.163 164.013 157.227C164.192 157.288 164.379 157.318 164.576 157.318C164.724 157.318 164.845 157.311 164.94 157.295C165.034 157.277 165.11 157.261 165.167 157.25L165.44 158.455C165.349 158.489 165.222 158.523 165.059 158.557C164.896 158.595 164.69 158.614 164.44 158.614C164.061 158.614 163.69 158.532 163.326 158.369C162.966 158.206 162.667 157.958 162.428 157.625C162.193 157.292 162.076 156.871 162.076 156.364V147.682ZM170.863 158.682C170.022 158.682 169.297 158.496 168.687 158.125C168.081 157.75 167.613 157.227 167.283 156.557C166.958 155.883 166.795 155.098 166.795 154.205C166.795 153.311 166.958 152.523 167.283 151.841C167.613 151.155 168.071 150.621 168.658 150.239C169.249 149.852 169.939 149.659 170.727 149.659C171.181 149.659 171.63 149.735 172.073 149.886C172.516 150.038 172.92 150.284 173.283 150.625C173.647 150.962 173.937 151.409 174.153 151.966C174.369 152.523 174.477 153.208 174.477 154.023V154.591H167.749V153.432H173.113C173.113 152.939 173.014 152.5 172.817 152.114C172.624 151.727 172.348 151.422 171.988 151.199C171.632 150.975 171.211 150.864 170.727 150.864C170.192 150.864 169.73 150.996 169.34 151.261C168.954 151.523 168.656 151.864 168.448 152.284C168.24 152.705 168.136 153.155 168.136 153.636V154.409C168.136 155.068 168.249 155.627 168.477 156.085C168.708 156.54 169.028 156.886 169.437 157.125C169.846 157.36 170.321 157.477 170.863 157.477C171.215 157.477 171.533 157.428 171.817 157.33C172.105 157.227 172.353 157.076 172.562 156.875C172.77 156.67 172.931 156.417 173.045 156.114L174.34 156.477C174.204 156.917 173.975 157.303 173.653 157.636C173.331 157.966 172.933 158.223 172.46 158.409C171.986 158.591 171.454 158.682 170.863 158.682ZM176.516 158.5V149.773H177.812V151.091H177.903C178.062 150.659 178.35 150.309 178.766 150.04C179.183 149.771 179.653 149.636 180.175 149.636C180.274 149.636 180.397 149.638 180.545 149.642C180.692 149.646 180.804 149.652 180.88 149.659V151.023C180.835 151.011 180.73 150.994 180.567 150.972C180.408 150.945 180.24 150.932 180.062 150.932C179.638 150.932 179.259 151.021 178.925 151.199C178.596 151.373 178.335 151.616 178.141 151.926C177.952 152.233 177.857 152.583 177.857 152.977V158.5H176.516ZM188.31 146.864V158.5H186.969V146.864H188.31ZM190.766 158.5V149.773H192.107V158.5H190.766ZM191.448 148.318C191.187 148.318 190.961 148.229 190.772 148.051C190.586 147.873 190.494 147.659 190.494 147.409C190.494 147.159 190.586 146.945 190.772 146.767C190.961 146.589 191.187 146.5 191.448 146.5C191.71 146.5 191.933 146.589 192.119 146.767C192.308 146.945 192.403 147.159 192.403 147.409C192.403 147.659 192.308 147.873 192.119 148.051C191.933 148.229 191.71 148.318 191.448 148.318ZM200.518 161.773V157.159H200.404C200.306 157.318 200.165 157.519 199.984 157.761C199.802 158 199.542 158.214 199.205 158.403C198.868 158.589 198.419 158.682 197.859 158.682C197.131 158.682 196.489 158.498 195.933 158.131C195.376 157.759 194.94 157.237 194.626 156.562C194.311 155.884 194.154 155.083 194.154 154.159C194.154 153.242 194.311 152.447 194.626 151.773C194.94 151.098 195.378 150.578 195.938 150.21C196.499 149.843 197.147 149.659 197.881 149.659C198.45 149.659 198.898 149.754 199.228 149.943C199.561 150.129 199.815 150.341 199.989 150.58C200.167 150.814 200.306 151.008 200.404 151.159H200.563V149.773H201.859V161.773H200.518ZM198.04 157.477C198.578 157.477 199.033 157.337 199.404 157.057C199.775 156.773 200.058 156.381 200.251 155.881C200.444 155.377 200.54 154.795 200.54 154.136C200.54 153.485 200.446 152.915 200.256 152.426C200.067 151.934 199.787 151.551 199.415 151.278C199.044 151.002 198.586 150.864 198.04 150.864C197.472 150.864 196.999 151.009 196.62 151.301C196.245 151.589 195.963 151.981 195.773 152.477C195.588 152.97 195.495 153.523 195.495 154.136C195.495 154.758 195.59 155.322 195.779 155.83C195.972 156.333 196.256 156.735 196.631 157.034C197.01 157.33 197.48 157.477 198.04 157.477ZM209.813 154.932V149.773H211.154V158.5H209.813V157.023H209.722C209.518 157.466 209.2 157.843 208.768 158.153C208.336 158.46 207.79 158.614 207.131 158.614C206.586 158.614 206.101 158.494 205.677 158.256C205.253 158.013 204.919 157.65 204.677 157.165C204.434 156.676 204.313 156.061 204.313 155.318V149.773H205.654V155.227C205.654 155.864 205.832 156.371 206.188 156.75C206.548 157.129 207.006 157.318 207.563 157.318C207.897 157.318 208.236 157.233 208.58 157.062C208.929 156.892 209.22 156.631 209.455 156.278C209.694 155.926 209.813 155.477 209.813 154.932ZM213.61 158.5V149.773H214.951V158.5H213.61ZM214.292 148.318C214.031 148.318 213.805 148.229 213.616 148.051C213.43 147.873 213.337 147.659 213.337 147.409C213.337 147.159 213.43 146.945 213.616 146.767C213.805 146.589 214.031 146.5 214.292 146.5C214.553 146.5 214.777 146.589 214.962 146.767C215.152 146.945 215.246 147.159 215.246 147.409C215.246 147.659 215.152 147.873 214.962 148.051C214.777 148.229 214.553 148.318 214.292 148.318ZM220.702 158.682C219.975 158.682 219.333 158.498 218.776 158.131C218.219 157.759 217.784 157.237 217.469 156.562C217.155 155.884 216.998 155.083 216.998 154.159C216.998 153.242 217.155 152.447 217.469 151.773C217.784 151.098 218.221 150.578 218.782 150.21C219.343 149.843 219.99 149.659 220.725 149.659C221.293 149.659 221.742 149.754 222.072 149.943C222.405 150.129 222.659 150.341 222.833 150.58C223.011 150.814 223.149 151.008 223.248 151.159H223.362V146.864H224.702V158.5H223.407V157.159H223.248C223.149 157.318 223.009 157.519 222.827 157.761C222.646 158 222.386 158.214 222.049 158.403C221.712 158.589 221.263 158.682 220.702 158.682ZM220.884 157.477C221.422 157.477 221.877 157.337 222.248 157.057C222.619 156.773 222.901 156.381 223.094 155.881C223.288 155.377 223.384 154.795 223.384 154.136C223.384 153.485 223.29 152.915 223.1 152.426C222.911 151.934 222.63 151.551 222.259 151.278C221.888 151.002 221.43 150.864 220.884 150.864C220.316 150.864 219.843 151.009 219.464 151.301C219.089 151.589 218.807 151.981 218.617 152.477C218.432 152.97 218.339 153.523 218.339 154.136C218.339 154.758 218.433 155.322 218.623 155.83C218.816 156.333 219.1 156.735 219.475 157.034C219.854 157.33 220.324 157.477 220.884 157.477ZM227.344 158.5V149.773H228.685V158.5H227.344ZM228.026 148.318C227.765 148.318 227.54 148.229 227.35 148.051C227.165 147.873 227.072 147.659 227.072 147.409C227.072 147.159 227.165 146.945 227.35 146.767C227.54 146.589 227.765 146.5 228.026 146.5C228.288 146.5 228.511 146.589 228.697 146.767C228.886 146.945 228.981 147.159 228.981 147.409C228.981 147.659 228.886 147.873 228.697 148.051C228.511 148.229 228.288 148.318 228.026 148.318ZM234.937 149.773V150.909H230.414V149.773H234.937ZM231.732 147.682H233.073V156C233.073 156.379 233.128 156.663 233.238 156.852C233.352 157.038 233.496 157.163 233.67 157.227C233.848 157.288 234.035 157.318 234.232 157.318C234.38 157.318 234.501 157.311 234.596 157.295C234.691 157.277 234.766 157.261 234.823 157.25L235.096 158.455C235.005 158.489 234.878 158.523 234.715 158.557C234.552 158.595 234.346 158.614 234.096 158.614C233.717 158.614 233.346 158.532 232.982 158.369C232.622 158.206 232.323 157.958 232.085 157.625C231.85 157.292 231.732 156.871 231.732 156.364V147.682ZM237.817 161.773C237.59 161.773 237.388 161.754 237.21 161.716C237.031 161.682 236.908 161.648 236.84 161.614L237.181 160.432C237.507 160.515 237.795 160.545 238.045 160.523C238.295 160.5 238.516 160.388 238.71 160.188C238.906 159.991 239.086 159.67 239.249 159.227L239.499 158.545L236.272 149.773H237.727L240.136 156.727H240.227L242.636 149.773H244.09L240.386 159.773C240.219 160.223 240.013 160.597 239.766 160.892C239.52 161.191 239.234 161.413 238.908 161.557C238.586 161.701 238.223 161.773 237.817 161.773Z" fill="black"/>
</svg>
