<svg width="80" height="80" viewBox="0 0 80 80" fill="none" xmlns="http://www.w3.org/2000/svg">
<path d="M80.0001 39.8411C79.8394 40.2738 79.6954 40.7052 79.5216 41.1244C75.9199 49.8109 72.3317 58.5033 68.6765 67.1673C68.4036 67.8141 67.7402 68.4861 67.0947 68.7577C58.4803 72.3785 49.8435 75.9466 41.1842 79.4618C40.436 79.7648 39.3565 79.794 38.6167 79.4932C29.9048 75.9553 21.2186 72.3539 12.5581 68.689C11.8723 68.399 11.1859 67.6566 10.8919 66.96C7.28542 58.4015 3.73532 49.819 0.241624 41.2124C-0.0788678 40.4202 -0.0815611 39.2724 0.241624 38.4824C3.76973 29.8276 7.36337 21.2002 11.0225 12.6002C11.2977 11.9516 11.9746 11.2877 12.6259 11.0117C21.2307 7.36475 29.8586 3.77201 38.5094 0.23343C39.2977 -0.0879592 40.4477 -0.0726977 41.2399 0.250487C49.8405 3.75944 58.4139 7.33348 66.9601 10.9726C67.6585 11.2698 68.3924 11.9677 68.686 12.6595C72.3393 21.262 75.9127 29.896 79.5068 38.5255C79.6832 38.9452 79.8278 39.3774 80.0001 39.8411ZM41.5083 77.3782L65.9519 67.2903C61.8425 63.1832 57.914 59.2484 53.9671 55.3343C53.7593 55.1282 53.358 54.9599 53.0851 55.0048C51.5913 55.2517 50.0458 55.4276 49.7603 57.4287C49.6665 58.0867 49.2504 58.6981 48.9874 59.3337C46.5541 65.1995 44.1239 71.0666 41.5083 77.3782ZM77.2804 41.5064C69.9347 44.5484 63.0132 47.4059 56.1015 50.2863C55.2262 50.6512 54.5753 53.2722 55.2038 53.9284C59.0788 57.9853 62.9786 62.0179 67.1374 66.336C70.6228 57.8021 73.8628 49.8715 77.2804 41.5064ZM13.7656 67.3047L38.1863 77.3715C35.5828 71.0478 33.1589 65.1308 30.6852 59.2372C30.5411 58.8951 29.9913 58.5796 29.5882 58.514C27.6643 58.203 25.7279 57.983 23.7933 57.7303L13.7656 67.3047ZM12.1977 65.5568L22.0324 56.2881C21.5018 53.7296 21.0601 51.5965 20.5399 49.0869L2.31584 41.5078L12.1977 65.5568ZM32.3227 58.3902C34.6061 63.9265 37.1422 70.076 39.7551 76.4131C40.0244 76.0235 40.1424 75.9041 40.2039 75.7605C42.992 69.0472 45.7754 62.332 48.5542 55.6148C49.0282 54.4661 47.4707 52.1262 46.2111 52.1136C43.0574 52.0836 39.9027 52.0741 36.7499 52.137C36.305 52.146 35.695 52.5006 35.4594 52.8798C34.4606 54.4863 33.5755 56.1624 32.3227 58.3902ZM14.4694 12.0858L31.8577 19.3014C33.5476 16.6602 35.8364 15.165 38.7321 14.7117V2.07918L14.4694 12.0858ZM65.2234 12.0804L40.8947 2.05718V14.6987C43.8918 15.1794 46.2098 16.7325 47.8522 19.3032L65.2234 12.0804ZM32.2464 44.3482C33.4359 46.2088 34.5464 47.5931 35.2376 49.1623C35.6457 50.0879 36.0276 50.3698 36.9456 50.3572C39.6388 50.32 42.3356 50.3455 45.0311 50.3446C48.0452 50.3446 49.2185 48.5891 48.0609 45.8174C47.8181 45.2365 47.5878 44.6503 47.3459 44.0668C45.7681 40.2765 44.1894 36.4872 42.6776 32.8621H37.003C35.4033 36.7278 33.7429 40.7357 32.2464 44.3482ZM67.707 14.3804C65.7912 19.4028 64.0204 23.9799 62.3358 28.5889C62.2061 28.9439 62.6626 29.5315 62.887 29.9939C63.4773 31.2058 64.3548 32.3504 64.6129 33.6247C64.8333 34.7097 65.3132 35.0198 66.1974 35.2528C69.4652 36.1133 72.724 37.0092 75.9891 37.8805C76.3966 37.9891 76.8222 38.0299 77.42 38.1336C74.177 30.2035 71.0232 22.4906 67.707 14.3813V14.3804ZM35.4513 32.0878C34.5504 31.2749 33.3932 30.7026 33.0153 29.8049C31.6853 26.6422 29.5042 26.9501 26.9946 27.951C26.5211 28.1405 25.9936 28.1925 25.495 28.3227C23.6434 28.8066 21.3963 28.7402 21.1481 31.4648C21.1311 31.656 20.8029 31.8073 20.7545 32.0093C20.658 32.4132 20.4851 32.9214 20.6391 33.2472C22.3726 36.9181 24.1623 40.562 25.8271 43.9891C27.1831 43.9891 28.3242 44.0551 29.4513 43.9577C29.9186 43.9173 30.6112 43.6394 30.7674 43.2808C32.3846 39.5574 33.9139 35.7982 35.4513 32.0878ZM2.73823 39.8402L21.6356 47.6321L24.1304 44.9883C22.7066 42.0258 21.2639 39.0457 19.8433 36.0558C19.1444 34.5858 18.7022 32.8801 16.4516 33.1997C16.084 33.2522 15.6647 32.7593 15.2356 32.6233C14.9097 32.5201 14.4402 32.437 14.1898 32.5932C10.4588 34.9193 6.7565 37.2862 2.73823 39.8402ZM48.7724 20.8755V27.627L54.5744 30.8076C55.9579 29.3632 57.5563 28.6531 59.5304 28.6908C59.92 28.698 60.5058 28.0431 60.6907 27.5718C61.8425 24.6402 62.9072 21.6741 63.9975 18.7187C64.5613 17.1926 65.1197 15.661 65.8159 13.7587L48.7724 20.8755ZM13.6511 13.7471C14.9017 17.6908 15.9956 21.1745 17.1294 24.6451C17.2147 24.9059 17.5567 25.1209 17.826 25.2767C18.8797 25.886 19.9444 26.4752 21.0202 27.0443C21.2953 27.1907 21.6486 27.3904 21.9121 27.3276C24.7952 26.6363 27.667 25.8979 30.4805 25.1878C30.6103 23.6935 30.7274 22.346 30.8535 20.8904L13.6511 13.7471ZM57.554 39.8932C56.466 42.2098 55.3631 44.4752 54.3505 46.7802C54.1359 47.2686 54.2499 47.9023 54.2127 48.4666C54.7778 48.4724 55.4138 48.6533 55.8977 48.4576C61.4188 46.2227 66.9201 43.9326 72.4246 41.6528C73.6657 41.1388 74.901 40.61 76.4936 39.939L64.3916 36.7372C62.2923 39.5063 61.3833 39.93 57.554 39.8932ZM2.75304 37.305L2.99229 37.5703C6.37092 35.4314 9.76077 33.3101 13.1102 31.1268C13.4285 30.9194 13.512 30.3305 13.6727 29.9063C14.1389 28.6773 14.5952 27.4447 15.0417 26.2085C15.1827 25.8198 15.4776 25.3606 15.3779 25.0316C14.3585 21.6597 13.2723 18.308 12.0868 14.5797C8.8765 22.3959 5.81477 29.8498 2.75304 37.305ZM47.5654 29.1356L44.3259 32.1762C46.2722 36.8862 48.2207 41.6474 50.2312 46.3798C50.3793 46.729 50.9732 47.0859 51.3561 47.0823C51.7389 47.0787 52.3077 46.7191 52.4814 46.3641C53.5102 44.2544 54.4945 42.1218 55.3766 39.9493C55.5489 39.5256 55.3766 38.7432 55.0686 38.3823C53.8334 36.9459 53.2889 35.3659 53.4756 33.4717C53.5205 33.0331 53.2682 32.3351 52.9275 32.1278C51.1747 31.0617 49.3483 30.115 47.5654 29.137V29.1356Z" fill="url(#paint0_linear_51_312)"/>
<defs>
<linearGradient id="paint0_linear_51_312" x1="17.6106" y1="-1.55576" x2="52.3853" y2="63.3048" gradientUnits="userSpaceOnUse">
<stop stop-color="#FC7916"/>
<stop offset="0.734375" stop-color="#880EF7"/>
<stop offset="1" stop-color="#1C4DF0"/>
</linearGradient>
</defs>
</svg>
