<svg width="80" height="89" viewBox="0 0 80 89" fill="none" xmlns="http://www.w3.org/2000/svg">
<path d="M8.19768 85.4447L16.3983 83.8796L18.416 83.4904C3.05247 74.0734 -4.02975 53.4407 2.3088 36.5322C5.14803 28.9513 11.6682 21.2349 19.8918 19.6265C21.5544 14.944 24.5989 10.8763 28.6228 7.96114C37.9591 1.11528 50.3105 1.35741 60.6096 5.7647L61.3043 6.08177C63.7101 4.38163 66.3527 3.04429 69.1474 2.11262C71.9484 1.18945 74.819 0.492537 77.7314 0.0285932C79.9481 -0.351893 80.9944 3.03501 78.7461 3.42414C74.1601 4.21394 69.0898 5.47646 64.939 7.92655C68.4528 9.94428 71.6754 12.5904 73.6585 16.0839C75.9645 20.1626 76.3536 25.5961 73.6412 29.5796C68.3259 37.4142 56.1619 33.2721 53.634 25.181C52.1524 20.4365 53.4985 15.2134 56.2455 11.201C56.8671 10.2942 57.5622 9.44008 58.3238 8.64717C50.7083 5.58022 41.937 4.92302 34.4166 8.58087C29.7009 10.8868 25.798 14.6686 23.7515 19.3152C24.0224 19.3152 24.2934 19.3411 24.5672 19.3671C30.1448 19.8946 35.2669 23.6908 38.8268 27.8444C41.9975 31.5282 44.0152 36.9876 41.1731 41.4814C38.5241 45.6811 33.2117 45.9694 29.0062 44.1678C24.5643 42.2654 21.3878 38.0166 19.8457 33.5459C18.7294 30.3245 18.4148 26.8795 18.9291 23.5092C12.4868 25.5903 7.61542 32.0932 5.4305 38.2098C-0.0461807 53.507 6.52008 72.2229 20.4597 80.582L14.0347 65.8296C13.1267 63.7455 16.5251 62.7424 17.4273 64.812L21.7856 74.82L23.6535 79.1062C24.23 80.435 25.3253 82.0694 25.4262 83.5481C25.6308 86.4709 21.6098 86.4565 19.644 86.8341L9.20654 88.8518C6.99857 89.264 5.95512 85.8771 8.19768 85.4447ZM57.1477 17.3119C55.9948 21.0591 56.4646 25.2963 59.5517 27.9597C61.9211 30.0005 65.6885 31.067 68.5911 29.5422C72.174 27.6715 72.6352 22.7713 71.3179 19.3527C69.6865 15.1154 65.6395 12.2675 61.7683 10.2441H61.7424C59.5803 12.1242 57.9885 14.5728 57.1477 17.3119ZM22.2699 27.6426C22.5091 31.5801 24.0224 35.5464 26.8184 38.3769C29.257 40.8414 34.039 43.2915 37.2357 40.7031C41.2452 37.4574 37.8611 31.7674 35.1199 29.0435C31.8887 25.8353 27.7639 22.7568 23.0136 22.8318L22.6388 22.8491C22.2981 24.4227 22.1721 26.0352 22.2641 27.6426H22.2699Z" fill="url(#paint0_linear_53_575)"/>
<defs>
<linearGradient id="paint0_linear_53_575" x1="39.995" y1="-0.00116348" x2="39.995" y2="88.8865" gradientUnits="userSpaceOnUse">
<stop stop-color="#FC7916"/>
<stop offset="0.640625" stop-color="#880EF7" stop-opacity="0.520833"/>
<stop offset="1" stop-color="#486EED"/>
</linearGradient>
</defs>
</svg>
